<svg xmlns="http://www.w3.org/2000/svg" xmlns:xlink="http://www.w3.org/1999/xlink" width="500" zoomAndPan="magnify" viewBox="0 0 375 374.999991" height="500" preserveAspectRatio="xMidYMid meet" version="1.0"><defs><g/><clipPath id="80425e0e0d"><path d="M 159.640625 126.367188 L 187.910156 126.367188 L 187.910156 154.632812 L 159.640625 154.632812 Z M 159.640625 126.367188 " clip-rule="nonzero"/></clipPath><clipPath id="15f2102866"><path d="M 173.773438 126.367188 C 165.96875 126.367188 159.640625 132.695312 159.640625 140.5 C 159.640625 148.308594 165.96875 154.632812 173.773438 154.632812 C 181.582031 154.632812 187.910156 148.308594 187.910156 140.5 C 187.910156 132.695312 181.582031 126.367188 173.773438 126.367188 Z M 173.773438 126.367188 " clip-rule="nonzero"/></clipPath><clipPath id="c223738f3f"><path d="M 0.640625 0.367188 L 28.910156 0.367188 L 28.910156 28.632812 L 0.640625 28.632812 Z M 0.640625 0.367188 " clip-rule="nonzero"/></clipPath><clipPath id="d0d4246b50"><path d="M 14.773438 0.367188 C 6.96875 0.367188 0.640625 6.695312 0.640625 14.5 C 0.640625 22.308594 6.96875 28.632812 14.773438 28.632812 C 22.582031 28.632812 28.910156 22.308594 28.910156 14.5 C 28.910156 6.695312 22.582031 0.367188 14.773438 0.367188 Z M 14.773438 0.367188 " clip-rule="nonzero"/></clipPath><clipPath id="e812958f8b"><rect x="0" width="29" y="0" height="29"/></clipPath><clipPath id="acdbc95678"><path d="M 159.640625 261.886719 L 187.910156 261.886719 L 187.910156 290.152344 L 159.640625 290.152344 Z M 159.640625 261.886719 " clip-rule="nonzero"/></clipPath><clipPath id="9364beb4f8"><path d="M 173.773438 261.886719 C 165.96875 261.886719 159.640625 268.214844 159.640625 276.019531 C 159.640625 283.824219 165.96875 290.152344 173.773438 290.152344 C 181.582031 290.152344 187.910156 283.824219 187.910156 276.019531 C 187.910156 268.214844 181.582031 261.886719 173.773438 261.886719 Z M 173.773438 261.886719 " clip-rule="nonzero"/></clipPath><clipPath id="086d05f376"><path d="M 0.640625 0.886719 L 28.910156 0.886719 L 28.910156 29.152344 L 0.640625 29.152344 Z M 0.640625 0.886719 " clip-rule="nonzero"/></clipPath><clipPath id="e2df3a71f7"><path d="M 14.773438 0.886719 C 6.96875 0.886719 0.640625 7.214844 0.640625 15.019531 C 0.640625 22.824219 6.96875 29.152344 14.773438 29.152344 C 22.582031 29.152344 28.910156 22.824219 28.910156 15.019531 C 28.910156 7.214844 22.582031 0.886719 14.773438 0.886719 Z M 14.773438 0.886719 " clip-rule="nonzero"/></clipPath><clipPath id="7796f44a5e"><rect x="0" width="29" y="0" height="30"/></clipPath><clipPath id="e771c3c4ad"><path d="M 60.367188 58.253906 L 88.636719 58.253906 L 88.636719 86.523438 L 60.367188 86.523438 Z M 60.367188 58.253906 " clip-rule="nonzero"/></clipPath><clipPath id="4743a23725"><path d="M 74.5 58.253906 C 66.695312 58.253906 60.367188 64.582031 60.367188 72.386719 C 60.367188 80.195312 66.695312 86.523438 74.5 86.523438 C 82.308594 86.523438 88.636719 80.195312 88.636719 72.386719 C 88.636719 64.582031 82.308594 58.253906 74.5 58.253906 Z M 74.5 58.253906 " clip-rule="nonzero"/></clipPath><clipPath id="0fa1338a5c"><path d="M 0.367188 0.253906 L 28.636719 0.253906 L 28.636719 28.523438 L 0.367188 28.523438 Z M 0.367188 0.253906 " clip-rule="nonzero"/></clipPath><clipPath id="7c46d23a6c"><path d="M 14.5 0.253906 C 6.695312 0.253906 0.367188 6.582031 0.367188 14.386719 C 0.367188 22.195312 6.695312 28.523438 14.5 28.523438 C 22.308594 28.523438 28.636719 22.195312 28.636719 14.386719 C 28.636719 6.582031 22.308594 0.253906 14.5 0.253906 Z M 14.5 0.253906 " clip-rule="nonzero"/></clipPath><clipPath id="8c4236295b"><rect x="0" width="29" y="0" height="29"/></clipPath><clipPath id="453b2d9d78"><path d="M 60.367188 193.773438 L 88.636719 193.773438 L 88.636719 222.039062 L 60.367188 222.039062 Z M 60.367188 193.773438 " clip-rule="nonzero"/></clipPath><clipPath id="d12bc91342"><path d="M 74.5 193.773438 C 66.695312 193.773438 60.367188 200.101562 60.367188 207.90625 C 60.367188 215.710938 66.695312 222.039062 74.5 222.039062 C 82.308594 222.039062 88.636719 215.710938 88.636719 207.90625 C 88.636719 200.101562 82.308594 193.773438 74.5 193.773438 Z M 74.5 193.773438 " clip-rule="nonzero"/></clipPath><clipPath id="ed69b4a9a2"><path d="M 0.367188 0.773438 L 28.636719 0.773438 L 28.636719 29.039062 L 0.367188 29.039062 Z M 0.367188 0.773438 " clip-rule="nonzero"/></clipPath><clipPath id="b53b660032"><path d="M 14.5 0.773438 C 6.695312 0.773438 0.367188 7.101562 0.367188 14.90625 C 0.367188 22.710938 6.695312 29.039062 14.5 29.039062 C 22.308594 29.039062 28.636719 22.710938 28.636719 14.90625 C 28.636719 7.101562 22.308594 0.773438 14.5 0.773438 Z M 14.5 0.773438 " clip-rule="nonzero"/></clipPath><clipPath id="e9132c335d"><rect x="0" width="29" y="0" height="30"/></clipPath><clipPath id="1e43ae2dff"><path d="M 0.558594 0.800781 L 76.878906 0.800781 L 76.878906 17 L 0.558594 17 Z M 0.558594 0.800781 " clip-rule="nonzero"/></clipPath><clipPath id="56146882cd"><rect x="0" width="77" y="0" height="17"/></clipPath><clipPath id="37e10e5df9"><path d="M 17 13 L 61 13 L 61 28.160156 L 17 28.160156 Z M 17 13 " clip-rule="nonzero"/></clipPath><clipPath id="8ba35d2ba1"><rect x="0" width="44" y="0" height="16"/></clipPath><clipPath id="56225ed898"><rect x="0" width="77" y="0" height="29"/></clipPath></defs><rect x="-37.5" width="450" fill="#ffffff" y="-37.499999" height="449.999989" fill-opacity="1"/><rect x="-37.5" width="450" fill="#f6f4f0" y="-37.499999" height="449.999989" fill-opacity="1"/><g fill="#169d53" fill-opacity="1"><g transform="translate(193.289025, 116.236586)"><g><path d="M -2 91.96875 C -2 85.21875 -0.503906 79.046875 2.484375 73.453125 C 5.472656 67.867188 9.625 63.441406 14.9375 60.171875 C 20.25 56.910156 26.5625 55.28125 33.875 55.28125 L 84.5 55.28125 C 86.269531 55.28125 87.875 54.835938 89.3125 53.953125 C 90.75 53.066406 91.910156 51.90625 92.796875 50.46875 C 93.679688 49.03125 94.125 47.425781 94.125 45.65625 C 94.125 43.882812 93.679688 42.28125 92.796875 40.84375 C 91.910156 39.40625 90.75 38.269531 89.3125 37.4375 C 87.875 36.601562 86.269531 36.1875 84.5 36.1875 L 0 36.1875 L 0 8.96875 L 82.515625 8.96875 C 89.484375 8.96875 95.625 10.539062 100.9375 13.6875 C 106.25 16.84375 110.453125 21.21875 113.546875 26.8125 C 116.648438 32.40625 118.203125 38.6875 118.203125 45.65625 C 118.203125 52.738281 116.648438 59.046875 113.546875 64.578125 C 110.453125 70.109375 106.25 74.476562 100.9375 77.6875 C 95.625 80.90625 89.484375 82.515625 82.515625 82.515625 L 31.875 82.515625 C 29.988281 82.515625 28.328125 82.957031 26.890625 83.84375 C 25.453125 84.726562 24.316406 85.859375 23.484375 87.234375 C 22.660156 88.617188 22.25 90.144531 22.25 91.8125 C 22.25 93.582031 22.660156 95.210938 23.484375 96.703125 C 24.316406 98.203125 25.453125 99.394531 26.890625 100.28125 C 28.328125 101.164062 29.988281 101.609375 31.875 101.609375 L 82.515625 101.609375 C 89.484375 101.609375 95.625 103.210938 100.9375 106.421875 C 106.25 109.628906 110.453125 114.023438 113.546875 119.609375 C 116.648438 125.203125 118.203125 131.429688 118.203125 138.296875 C 118.203125 145.378906 116.648438 151.660156 113.546875 157.140625 C 110.453125 162.617188 106.25 166.960938 100.9375 170.171875 C 95.625 173.378906 89.484375 174.984375 82.515625 174.984375 L 0 174.984375 L 0 147.75 L 84.671875 147.75 C 86.441406 147.75 88.015625 147.332031 89.390625 146.5 C 90.773438 145.675781 91.910156 144.546875 92.796875 143.109375 C 93.679688 141.671875 94.125 140.066406 94.125 138.296875 C 94.125 136.628906 93.679688 135.046875 92.796875 133.546875 C 91.910156 132.054688 90.773438 130.867188 89.390625 129.984375 C 88.015625 129.097656 86.441406 128.65625 84.671875 128.65625 L 33.875 128.65625 C 26.5625 128.65625 20.25 126.992188 14.9375 123.671875 C 9.625 120.359375 5.472656 115.929688 2.484375 110.390625 C -0.503906 104.859375 -2 98.71875 -2 91.96875 Z M -2 91.96875 "/></g></g></g><g clip-path="url(#80425e0e0d)"><g clip-path="url(#15f2102866)"><g transform="matrix(1, 0, 0, 1, 159, 126)"><g clip-path="url(#e812958f8b)"><g clip-path="url(#c223738f3f)"><g clip-path="url(#d0d4246b50)"><path fill="#5e452e" d="M 0.640625 0.367188 L 28.910156 0.367188 L 28.910156 28.632812 L 0.640625 28.632812 Z M 0.640625 0.367188 " fill-opacity="1" fill-rule="nonzero"/></g></g></g></g></g></g><g clip-path="url(#acdbc95678)"><g clip-path="url(#9364beb4f8)"><g transform="matrix(1, 0, 0, 1, 159, 261)"><g clip-path="url(#7796f44a5e)"><g clip-path="url(#086d05f376)"><g clip-path="url(#e2df3a71f7)"><path fill="#5e452e" d="M 0.640625 0.886719 L 28.910156 0.886719 L 28.910156 29.152344 L 0.640625 29.152344 Z M 0.640625 0.886719 " fill-opacity="1" fill-rule="nonzero"/></g></g></g></g></g></g><g fill="#00ca72" fill-opacity="1"><g transform="translate(94.015954, 48.123399)"><g><path d="M -2 91.96875 C -2 85.21875 -0.503906 79.046875 2.484375 73.453125 C 5.472656 67.867188 9.625 63.441406 14.9375 60.171875 C 20.25 56.910156 26.5625 55.28125 33.875 55.28125 L 84.5 55.28125 C 86.269531 55.28125 87.875 54.835938 89.3125 53.953125 C 90.75 53.066406 91.910156 51.90625 92.796875 50.46875 C 93.679688 49.03125 94.125 47.425781 94.125 45.65625 C 94.125 43.882812 93.679688 42.28125 92.796875 40.84375 C 91.910156 39.40625 90.75 38.269531 89.3125 37.4375 C 87.875 36.601562 86.269531 36.1875 84.5 36.1875 L 0 36.1875 L 0 8.96875 L 82.515625 8.96875 C 89.484375 8.96875 95.625 10.539062 100.9375 13.6875 C 106.25 16.84375 110.453125 21.21875 113.546875 26.8125 C 116.648438 32.40625 118.203125 38.6875 118.203125 45.65625 C 118.203125 52.738281 116.648438 59.046875 113.546875 64.578125 C 110.453125 70.109375 106.25 74.476562 100.9375 77.6875 C 95.625 80.90625 89.484375 82.515625 82.515625 82.515625 L 31.875 82.515625 C 29.988281 82.515625 28.328125 82.957031 26.890625 83.84375 C 25.453125 84.726562 24.316406 85.859375 23.484375 87.234375 C 22.660156 88.617188 22.25 90.144531 22.25 91.8125 C 22.25 93.582031 22.660156 95.210938 23.484375 96.703125 C 24.316406 98.203125 25.453125 99.394531 26.890625 100.28125 C 28.328125 101.164062 29.988281 101.609375 31.875 101.609375 L 82.515625 101.609375 C 89.484375 101.609375 95.625 103.210938 100.9375 106.421875 C 106.25 109.628906 110.453125 114.023438 113.546875 119.609375 C 116.648438 125.203125 118.203125 131.429688 118.203125 138.296875 C 118.203125 145.378906 116.648438 151.660156 113.546875 157.140625 C 110.453125 162.617188 106.25 166.960938 100.9375 170.171875 C 95.625 173.378906 89.484375 174.984375 82.515625 174.984375 L 0 174.984375 L 0 147.75 L 84.671875 147.75 C 86.441406 147.75 88.015625 147.332031 89.390625 146.5 C 90.773438 145.675781 91.910156 144.546875 92.796875 143.109375 C 93.679688 141.671875 94.125 140.066406 94.125 138.296875 C 94.125 136.628906 93.679688 135.046875 92.796875 133.546875 C 91.910156 132.054688 90.773438 130.867188 89.390625 129.984375 C 88.015625 129.097656 86.441406 128.65625 84.671875 128.65625 L 33.875 128.65625 C 26.5625 128.65625 20.25 126.992188 14.9375 123.671875 C 9.625 120.359375 5.472656 115.929688 2.484375 110.390625 C -0.503906 104.859375 -2 98.71875 -2 91.96875 Z M -2 91.96875 "/></g></g></g><g clip-path="url(#e771c3c4ad)"><g clip-path="url(#4743a23725)"><g transform="matrix(1, 0, 0, 1, 60, 58)"><g clip-path="url(#8c4236295b)"><g clip-path="url(#0fa1338a5c)"><g clip-path="url(#7c46d23a6c)"><path fill="#8f867e" d="M 0.367188 0.253906 L 28.636719 0.253906 L 28.636719 28.523438 L 0.367188 28.523438 Z M 0.367188 0.253906 " fill-opacity="1" fill-rule="nonzero"/></g></g></g></g></g></g><g clip-path="url(#453b2d9d78)"><g clip-path="url(#d12bc91342)"><g transform="matrix(1, 0, 0, 1, 60, 193)"><g clip-path="url(#e9132c335d)"><g clip-path="url(#ed69b4a9a2)"><g clip-path="url(#b53b660032)"><path fill="#99928b" d="M 0.367188 0.773438 L 28.636719 0.773438 L 28.636719 29.039062 L 0.367188 29.039062 Z M 0.367188 0.773438 " fill-opacity="1" fill-rule="nonzero"/></g></g></g></g></g></g><g transform="matrix(1, 0, 0, 1, 94, 238)"><g clip-path="url(#56225ed898)"><g clip-path="url(#1e43ae2dff)"><g><g clip-path="url(#56146882cd)"><g fill="#169d53" fill-opacity="1"><g transform="translate(0.921729, 12.515633)"><g><path d="M 0.953125 -7.5625 L 3.3125 -7.5625 C 4.3125 -7.5625 5.070312 -7.421875 5.59375 -7.140625 C 6.113281 -6.859375 6.375 -6.363281 6.375 -5.65625 C 6.375 -5.363281 6.328125 -5.101562 6.234375 -4.875 C 6.140625 -4.644531 6.003906 -4.453125 5.828125 -4.296875 C 5.660156 -4.148438 5.453125 -4.054688 5.203125 -4.015625 L 5.203125 -3.96875 C 5.453125 -3.914062 5.675781 -3.820312 5.875 -3.6875 C 6.082031 -3.5625 6.25 -3.378906 6.375 -3.140625 C 6.5 -2.898438 6.5625 -2.582031 6.5625 -2.1875 C 6.5625 -1.726562 6.445312 -1.332031 6.21875 -1 C 6 -0.675781 5.679688 -0.425781 5.265625 -0.25 C 4.847656 -0.0820312 4.351562 0 3.78125 0 L 0.953125 0 Z M 2.5625 -4.5625 L 3.484375 -4.5625 C 3.953125 -4.5625 4.273438 -4.632812 4.453125 -4.78125 C 4.628906 -4.925781 4.71875 -5.144531 4.71875 -5.4375 C 4.71875 -5.726562 4.613281 -5.9375 4.40625 -6.0625 C 4.195312 -6.1875 3.863281 -6.25 3.40625 -6.25 L 2.5625 -6.25 Z M 2.5625 -3.296875 L 2.5625 -1.328125 L 3.59375 -1.328125 C 4.082031 -1.328125 4.421875 -1.421875 4.609375 -1.609375 C 4.796875 -1.796875 4.890625 -2.046875 4.890625 -2.359375 C 4.890625 -2.546875 4.847656 -2.707031 4.765625 -2.84375 C 4.679688 -2.988281 4.539062 -3.097656 4.34375 -3.171875 C 4.15625 -3.253906 3.890625 -3.296875 3.546875 -3.296875 Z M 2.5625 -3.296875 "/></g></g></g><g fill="#169d53" fill-opacity="1"><g transform="translate(7.521877, 12.515633)"><g><path d="M 7.8125 -3.796875 C 7.8125 -3.210938 7.738281 -2.679688 7.59375 -2.203125 C 7.445312 -1.722656 7.226562 -1.3125 6.9375 -0.96875 C 6.644531 -0.625 6.269531 -0.359375 5.8125 -0.171875 C 5.363281 0.015625 4.832031 0.109375 4.21875 0.109375 C 3.601562 0.109375 3.066406 0.015625 2.609375 -0.171875 C 2.160156 -0.359375 1.785156 -0.625 1.484375 -0.96875 C 1.191406 -1.3125 0.972656 -1.722656 0.828125 -2.203125 C 0.679688 -2.679688 0.609375 -3.210938 0.609375 -3.796875 C 0.609375 -4.578125 0.738281 -5.257812 1 -5.84375 C 1.257812 -6.425781 1.65625 -6.878906 2.1875 -7.203125 C 2.71875 -7.523438 3.394531 -7.6875 4.21875 -7.6875 C 5.039062 -7.6875 5.71875 -7.523438 6.25 -7.203125 C 6.78125 -6.878906 7.171875 -6.425781 7.421875 -5.84375 C 7.679688 -5.257812 7.8125 -4.578125 7.8125 -3.796875 Z M 2.296875 -3.796875 C 2.296875 -3.265625 2.359375 -2.804688 2.484375 -2.421875 C 2.617188 -2.046875 2.828125 -1.753906 3.109375 -1.546875 C 3.398438 -1.335938 3.769531 -1.234375 4.21875 -1.234375 C 4.675781 -1.234375 5.046875 -1.335938 5.328125 -1.546875 C 5.609375 -1.753906 5.8125 -2.046875 5.9375 -2.421875 C 6.070312 -2.804688 6.140625 -3.265625 6.140625 -3.796875 C 6.140625 -4.585938 5.988281 -5.207031 5.6875 -5.65625 C 5.394531 -6.113281 4.90625 -6.34375 4.21875 -6.34375 C 3.769531 -6.34375 3.398438 -6.238281 3.109375 -6.03125 C 2.828125 -5.832031 2.617188 -5.539062 2.484375 -5.15625 C 2.359375 -4.78125 2.296875 -4.328125 2.296875 -3.796875 Z M 2.296875 -3.796875 "/></g></g></g><g fill="#169d53" fill-opacity="1"><g transform="translate(15.436208, 12.515633)"><g><path d="M 7.8125 -3.796875 C 7.8125 -3.210938 7.738281 -2.679688 7.59375 -2.203125 C 7.445312 -1.722656 7.226562 -1.3125 6.9375 -0.96875 C 6.644531 -0.625 6.269531 -0.359375 5.8125 -0.171875 C 5.363281 0.015625 4.832031 0.109375 4.21875 0.109375 C 3.601562 0.109375 3.066406 0.015625 2.609375 -0.171875 C 2.160156 -0.359375 1.785156 -0.625 1.484375 -0.96875 C 1.191406 -1.3125 0.972656 -1.722656 0.828125 -2.203125 C 0.679688 -2.679688 0.609375 -3.210938 0.609375 -3.796875 C 0.609375 -4.578125 0.738281 -5.257812 1 -5.84375 C 1.257812 -6.425781 1.65625 -6.878906 2.1875 -7.203125 C 2.71875 -7.523438 3.394531 -7.6875 4.21875 -7.6875 C 5.039062 -7.6875 5.71875 -7.523438 6.25 -7.203125 C 6.78125 -6.878906 7.171875 -6.425781 7.421875 -5.84375 C 7.679688 -5.257812 7.8125 -4.578125 7.8125 -3.796875 Z M 2.296875 -3.796875 C 2.296875 -3.265625 2.359375 -2.804688 2.484375 -2.421875 C 2.617188 -2.046875 2.828125 -1.753906 3.109375 -1.546875 C 3.398438 -1.335938 3.769531 -1.234375 4.21875 -1.234375 C 4.675781 -1.234375 5.046875 -1.335938 5.328125 -1.546875 C 5.609375 -1.753906 5.8125 -2.046875 5.9375 -2.421875 C 6.070312 -2.804688 6.140625 -3.265625 6.140625 -3.796875 C 6.140625 -4.585938 5.988281 -5.207031 5.6875 -5.65625 C 5.394531 -6.113281 4.90625 -6.34375 4.21875 -6.34375 C 3.769531 -6.34375 3.398438 -6.238281 3.109375 -6.03125 C 2.828125 -5.832031 2.617188 -5.539062 2.484375 -5.15625 C 2.359375 -4.78125 2.296875 -4.328125 2.296875 -3.796875 Z M 2.296875 -3.796875 "/></g></g></g><g fill="#169d53" fill-opacity="1"><g transform="translate(23.35054, 12.515633)"><g><path d="M 5.421875 -2.09375 C 5.421875 -1.644531 5.3125 -1.253906 5.09375 -0.921875 C 4.875 -0.597656 4.554688 -0.34375 4.140625 -0.15625 C 3.722656 0.0195312 3.21875 0.109375 2.625 0.109375 C 2.363281 0.109375 2.109375 0.0859375 1.859375 0.046875 C 1.609375 0.015625 1.367188 -0.03125 1.140625 -0.09375 C 0.910156 -0.164062 0.691406 -0.253906 0.484375 -0.359375 L 0.484375 -1.84375 C 0.847656 -1.6875 1.222656 -1.539062 1.609375 -1.40625 C 1.992188 -1.28125 2.375 -1.21875 2.75 -1.21875 C 3.007812 -1.21875 3.21875 -1.25 3.375 -1.3125 C 3.539062 -1.382812 3.660156 -1.484375 3.734375 -1.609375 C 3.804688 -1.734375 3.84375 -1.867188 3.84375 -2.015625 C 3.84375 -2.210938 3.773438 -2.375 3.640625 -2.5 C 3.515625 -2.632812 3.34375 -2.757812 3.125 -2.875 C 2.90625 -3 2.65625 -3.128906 2.375 -3.265625 C 2.195312 -3.347656 2.003906 -3.445312 1.796875 -3.5625 C 1.585938 -3.6875 1.390625 -3.832031 1.203125 -4 C 1.023438 -4.175781 0.875 -4.382812 0.75 -4.625 C 0.632812 -4.875 0.578125 -5.171875 0.578125 -5.515625 C 0.578125 -5.972656 0.675781 -6.359375 0.875 -6.671875 C 1.082031 -6.992188 1.378906 -7.238281 1.765625 -7.40625 C 2.148438 -7.582031 2.609375 -7.671875 3.140625 -7.671875 C 3.523438 -7.671875 3.894531 -7.625 4.25 -7.53125 C 4.613281 -7.4375 4.988281 -7.304688 5.375 -7.140625 L 4.859375 -5.890625 C 4.515625 -6.035156 4.203125 -6.144531 3.921875 -6.21875 C 3.648438 -6.300781 3.367188 -6.34375 3.078125 -6.34375 C 2.878906 -6.34375 2.707031 -6.304688 2.5625 -6.234375 C 2.425781 -6.171875 2.320312 -6.082031 2.25 -5.96875 C 2.175781 -5.851562 2.140625 -5.722656 2.140625 -5.578125 C 2.140625 -5.390625 2.191406 -5.234375 2.296875 -5.109375 C 2.398438 -4.992188 2.554688 -4.878906 2.765625 -4.765625 C 2.984375 -4.648438 3.25 -4.515625 3.5625 -4.359375 C 3.957031 -4.179688 4.289062 -3.992188 4.5625 -3.796875 C 4.832031 -3.597656 5.039062 -3.363281 5.1875 -3.09375 C 5.34375 -2.820312 5.421875 -2.488281 5.421875 -2.09375 Z M 5.421875 -2.09375 "/></g></g></g><g fill="#169d53" fill-opacity="1"><g transform="translate(28.667546, 12.515633)"><g><path d="M 3.875 0 L 2.265625 0 L 2.265625 -6.234375 L 0.21875 -6.234375 L 0.21875 -7.5625 L 5.921875 -7.5625 L 5.921875 -6.234375 L 3.875 -6.234375 Z M 3.875 0 "/></g></g></g><g fill="#169d53" fill-opacity="1"><g transform="translate(34.284642, 12.515633)"><g/></g></g><g fill="#169d53" fill-opacity="1"><g transform="translate(36.517972, 12.515633)"><g><path d="M 0.953125 -7.5625 L 3.3125 -7.5625 C 4.3125 -7.5625 5.070312 -7.421875 5.59375 -7.140625 C 6.113281 -6.859375 6.375 -6.363281 6.375 -5.65625 C 6.375 -5.363281 6.328125 -5.101562 6.234375 -4.875 C 6.140625 -4.644531 6.003906 -4.453125 5.828125 -4.296875 C 5.660156 -4.148438 5.453125 -4.054688 5.203125 -4.015625 L 5.203125 -3.96875 C 5.453125 -3.914062 5.675781 -3.820312 5.875 -3.6875 C 6.082031 -3.5625 6.25 -3.378906 6.375 -3.140625 C 6.5 -2.898438 6.5625 -2.582031 6.5625 -2.1875 C 6.5625 -1.726562 6.445312 -1.332031 6.21875 -1 C 6 -0.675781 5.679688 -0.425781 5.265625 -0.25 C 4.847656 -0.0820312 4.351562 0 3.78125 0 L 0.953125 0 Z M 2.5625 -4.5625 L 3.484375 -4.5625 C 3.953125 -4.5625 4.273438 -4.632812 4.453125 -4.78125 C 4.628906 -4.925781 4.71875 -5.144531 4.71875 -5.4375 C 4.71875 -5.726562 4.613281 -5.9375 4.40625 -6.0625 C 4.195312 -6.1875 3.863281 -6.25 3.40625 -6.25 L 2.5625 -6.25 Z M 2.5625 -3.296875 L 2.5625 -1.328125 L 3.59375 -1.328125 C 4.082031 -1.328125 4.421875 -1.421875 4.609375 -1.609375 C 4.796875 -1.796875 4.890625 -2.046875 4.890625 -2.359375 C 4.890625 -2.546875 4.847656 -2.707031 4.765625 -2.84375 C 4.679688 -2.988281 4.539062 -3.097656 4.34375 -3.171875 C 4.15625 -3.253906 3.890625 -3.296875 3.546875 -3.296875 Z M 2.5625 -3.296875 "/></g></g></g><g fill="#169d53" fill-opacity="1"><g transform="translate(43.118119, 12.515633)"><g><path d="M 5.578125 0 L 5.03125 -1.796875 L 2.28125 -1.796875 L 1.734375 0 L 0 0 L 2.671875 -7.59375 L 4.625 -7.59375 L 7.3125 0 Z M 4.65625 -3.140625 L 4.109375 -4.90625 C 4.066406 -5.019531 4.015625 -5.171875 3.953125 -5.359375 C 3.898438 -5.546875 3.84375 -5.734375 3.78125 -5.921875 C 3.726562 -6.109375 3.6875 -6.273438 3.65625 -6.421875 C 3.625 -6.273438 3.578125 -6.097656 3.515625 -5.890625 C 3.453125 -5.679688 3.394531 -5.484375 3.34375 -5.296875 C 3.289062 -5.109375 3.25 -4.976562 3.21875 -4.90625 L 2.671875 -3.140625 Z M 4.65625 -3.140625 "/></g></g></g><g fill="#169d53" fill-opacity="1"><g transform="translate(49.909702, 12.515633)"><g><path d="M 3.828125 -4.25 L 6.828125 -4.25 L 6.828125 -0.328125 C 6.429688 -0.191406 6.015625 -0.0820312 5.578125 0 C 5.148438 0.0703125 4.671875 0.109375 4.140625 0.109375 C 3.378906 0.109375 2.738281 -0.0351562 2.21875 -0.328125 C 1.695312 -0.628906 1.296875 -1.070312 1.015625 -1.65625 C 0.742188 -2.238281 0.609375 -2.953125 0.609375 -3.796875 C 0.609375 -4.585938 0.757812 -5.269531 1.0625 -5.84375 C 1.375 -6.425781 1.820312 -6.875 2.40625 -7.1875 C 3 -7.507812 3.71875 -7.671875 4.5625 -7.671875 C 4.96875 -7.671875 5.363281 -7.625 5.75 -7.53125 C 6.144531 -7.445312 6.5 -7.335938 6.8125 -7.203125 L 6.28125 -5.921875 C 6.050781 -6.035156 5.785156 -6.132812 5.484375 -6.21875 C 5.191406 -6.300781 4.882812 -6.34375 4.5625 -6.34375 C 4.09375 -6.34375 3.6875 -6.234375 3.34375 -6.015625 C 3 -5.796875 2.734375 -5.492188 2.546875 -5.109375 C 2.359375 -4.734375 2.265625 -4.285156 2.265625 -3.765625 C 2.265625 -3.265625 2.332031 -2.820312 2.46875 -2.4375 C 2.601562 -2.0625 2.8125 -1.765625 3.09375 -1.546875 C 3.382812 -1.335938 3.765625 -1.234375 4.234375 -1.234375 C 4.460938 -1.234375 4.65625 -1.242188 4.8125 -1.265625 C 4.96875 -1.285156 5.113281 -1.304688 5.25 -1.328125 L 5.25 -2.90625 L 3.828125 -2.90625 Z M 3.828125 -4.25 "/></g></g></g><g fill="#169d53" fill-opacity="1"><g transform="translate(57.063463, 12.515633)"><g><path d="M 7.109375 -7.5625 L 7.109375 -2.671875 C 7.109375 -2.148438 6.992188 -1.675781 6.765625 -1.25 C 6.535156 -0.832031 6.1875 -0.5 5.71875 -0.25 C 5.257812 -0.0078125 4.675781 0.109375 3.96875 0.109375 C 2.96875 0.109375 2.207031 -0.144531 1.6875 -0.65625 C 1.164062 -1.164062 0.90625 -1.84375 0.90625 -2.6875 L 0.90625 -7.5625 L 2.5 -7.5625 L 2.5 -2.9375 C 2.5 -2.3125 2.625 -1.867188 2.875 -1.609375 C 3.132812 -1.359375 3.515625 -1.234375 4.015625 -1.234375 C 4.367188 -1.234375 4.65625 -1.296875 4.875 -1.421875 C 5.09375 -1.546875 5.253906 -1.734375 5.359375 -1.984375 C 5.460938 -2.234375 5.515625 -2.550781 5.515625 -2.9375 L 5.515625 -7.5625 Z M 7.109375 -7.5625 "/></g></g></g><g fill="#169d53" fill-opacity="1"><g transform="translate(64.55353, 12.515633)"><g><path d="M 0.953125 0 L 0.953125 -7.5625 L 2.5625 -7.5625 L 2.5625 0 Z M 0.953125 0 "/></g></g></g><g fill="#169d53" fill-opacity="1"><g transform="translate(67.542257, 12.515633)"><g><path d="M 7.8125 -3.796875 C 7.8125 -3.210938 7.738281 -2.679688 7.59375 -2.203125 C 7.445312 -1.722656 7.226562 -1.3125 6.9375 -0.96875 C 6.644531 -0.625 6.269531 -0.359375 5.8125 -0.171875 C 5.363281 0.015625 4.832031 0.109375 4.21875 0.109375 C 3.601562 0.109375 3.066406 0.015625 2.609375 -0.171875 C 2.160156 -0.359375 1.785156 -0.625 1.484375 -0.96875 C 1.191406 -1.3125 0.972656 -1.722656 0.828125 -2.203125 C 0.679688 -2.679688 0.609375 -3.210938 0.609375 -3.796875 C 0.609375 -4.578125 0.738281 -5.257812 1 -5.84375 C 1.257812 -6.425781 1.65625 -6.878906 2.1875 -7.203125 C 2.71875 -7.523438 3.394531 -7.6875 4.21875 -7.6875 C 5.039062 -7.6875 5.71875 -7.523438 6.25 -7.203125 C 6.78125 -6.878906 7.171875 -6.425781 7.421875 -5.84375 C 7.679688 -5.257812 7.8125 -4.578125 7.8125 -3.796875 Z M 2.296875 -3.796875 C 2.296875 -3.265625 2.359375 -2.804688 2.484375 -2.421875 C 2.617188 -2.046875 2.828125 -1.753906 3.109375 -1.546875 C 3.398438 -1.335938 3.769531 -1.234375 4.21875 -1.234375 C 4.675781 -1.234375 5.046875 -1.335938 5.328125 -1.546875 C 5.609375 -1.753906 5.8125 -2.046875 5.9375 -2.421875 C 6.070312 -2.804688 6.140625 -3.265625 6.140625 -3.796875 C 6.140625 -4.585938 5.988281 -5.207031 5.6875 -5.65625 C 5.394531 -6.113281 4.90625 -6.34375 4.21875 -6.34375 C 3.769531 -6.34375 3.398438 -6.238281 3.109375 -6.03125 C 2.828125 -5.832031 2.617188 -5.539062 2.484375 -5.15625 C 2.359375 -4.78125 2.296875 -4.328125 2.296875 -3.796875 Z M 2.296875 -3.796875 "/></g></g></g></g></g></g><g clip-path="url(#37e10e5df9)"><g transform="matrix(1, 0, 0, 1, 17, 13)"><g clip-path="url(#8ba35d2ba1)"><g fill="#169d53" fill-opacity="1"><g transform="translate(0.823363, 11.524724)"><g><path d="M 5.3125 0 L 0.953125 0 L 0.953125 -7.5625 L 5.3125 -7.5625 L 5.3125 -6.25 L 2.5625 -6.25 L 2.5625 -4.59375 L 5.109375 -4.59375 L 5.109375 -3.28125 L 2.5625 -3.28125 L 2.5625 -1.328125 L 5.3125 -1.328125 Z M 5.3125 0 "/></g></g></g><g fill="#169d53" fill-opacity="1"><g transform="translate(6.238687, 11.524724)"><g><path d="M 5.421875 -2.09375 C 5.421875 -1.644531 5.3125 -1.253906 5.09375 -0.921875 C 4.875 -0.597656 4.554688 -0.34375 4.140625 -0.15625 C 3.722656 0.0195312 3.21875 0.109375 2.625 0.109375 C 2.363281 0.109375 2.109375 0.0859375 1.859375 0.046875 C 1.609375 0.015625 1.367188 -0.03125 1.140625 -0.09375 C 0.910156 -0.164062 0.691406 -0.253906 0.484375 -0.359375 L 0.484375 -1.84375 C 0.847656 -1.6875 1.222656 -1.539062 1.609375 -1.40625 C 1.992188 -1.28125 2.375 -1.21875 2.75 -1.21875 C 3.007812 -1.21875 3.21875 -1.25 3.375 -1.3125 C 3.539062 -1.382812 3.660156 -1.484375 3.734375 -1.609375 C 3.804688 -1.734375 3.84375 -1.867188 3.84375 -2.015625 C 3.84375 -2.210938 3.773438 -2.375 3.640625 -2.5 C 3.515625 -2.632812 3.34375 -2.757812 3.125 -2.875 C 2.90625 -3 2.65625 -3.128906 2.375 -3.265625 C 2.195312 -3.347656 2.003906 -3.445312 1.796875 -3.5625 C 1.585938 -3.6875 1.390625 -3.832031 1.203125 -4 C 1.023438 -4.175781 0.875 -4.382812 0.75 -4.625 C 0.632812 -4.875 0.578125 -5.171875 0.578125 -5.515625 C 0.578125 -5.972656 0.675781 -6.359375 0.875 -6.671875 C 1.082031 -6.992188 1.378906 -7.238281 1.765625 -7.40625 C 2.148438 -7.582031 2.609375 -7.671875 3.140625 -7.671875 C 3.523438 -7.671875 3.894531 -7.625 4.25 -7.53125 C 4.613281 -7.4375 4.988281 -7.304688 5.375 -7.140625 L 4.859375 -5.890625 C 4.515625 -6.035156 4.203125 -6.144531 3.921875 -6.21875 C 3.648438 -6.300781 3.367188 -6.34375 3.078125 -6.34375 C 2.878906 -6.34375 2.707031 -6.304688 2.5625 -6.234375 C 2.425781 -6.171875 2.320312 -6.082031 2.25 -5.96875 C 2.175781 -5.851562 2.140625 -5.722656 2.140625 -5.578125 C 2.140625 -5.390625 2.191406 -5.234375 2.296875 -5.109375 C 2.398438 -4.992188 2.554688 -4.878906 2.765625 -4.765625 C 2.984375 -4.648438 3.25 -4.515625 3.5625 -4.359375 C 3.957031 -4.179688 4.289062 -3.992188 4.5625 -3.796875 C 4.832031 -3.597656 5.039062 -3.363281 5.1875 -3.09375 C 5.34375 -2.820312 5.421875 -2.488281 5.421875 -2.09375 Z M 5.421875 -2.09375 "/></g></g></g><g fill="#169d53" fill-opacity="1"><g transform="translate(11.555706, 11.524724)"><g><path d="M 3.875 0 L 2.265625 0 L 2.265625 -6.234375 L 0.21875 -6.234375 L 0.21875 -7.5625 L 5.921875 -7.5625 L 5.921875 -6.234375 L 3.875 -6.234375 Z M 3.875 0 "/></g></g></g><g fill="#169d53" fill-opacity="1"><g transform="translate(17.172815, 11.524724)"><g/></g></g><g fill="#169d53" fill-opacity="1"><g transform="translate(19.40615, 11.524724)"><g><path d="M 5.703125 0 L 0.421875 0 L 0.421875 -1.109375 L 2.328125 -3.03125 C 2.703125 -3.425781 3.003906 -3.753906 3.234375 -4.015625 C 3.472656 -4.273438 3.644531 -4.515625 3.75 -4.734375 C 3.851562 -4.953125 3.90625 -5.1875 3.90625 -5.4375 C 3.90625 -5.738281 3.820312 -5.960938 3.65625 -6.109375 C 3.488281 -6.265625 3.265625 -6.34375 2.984375 -6.34375 C 2.691406 -6.34375 2.40625 -6.273438 2.125 -6.140625 C 1.851562 -6.003906 1.566406 -5.8125 1.265625 -5.5625 L 0.40625 -6.59375 C 0.625 -6.78125 0.851562 -6.953125 1.09375 -7.109375 C 1.332031 -7.273438 1.613281 -7.410156 1.9375 -7.515625 C 2.257812 -7.617188 2.648438 -7.671875 3.109375 -7.671875 C 3.597656 -7.671875 4.019531 -7.582031 4.375 -7.40625 C 4.738281 -7.226562 5.015625 -6.984375 5.203125 -6.671875 C 5.398438 -6.359375 5.5 -6.007812 5.5 -5.625 C 5.5 -5.207031 5.414062 -4.828125 5.25 -4.484375 C 5.082031 -4.140625 4.84375 -3.796875 4.53125 -3.453125 C 4.21875 -3.117188 3.835938 -2.742188 3.390625 -2.328125 L 2.421875 -1.421875 L 2.421875 -1.34375 L 5.703125 -1.34375 Z M 5.703125 0 "/></g></g></g><g fill="#169d53" fill-opacity="1"><g transform="translate(24.945649, 11.524724)"><g><path d="M 5.671875 -3.78125 C 5.671875 -3.164062 5.625 -2.617188 5.53125 -2.140625 C 5.4375 -1.660156 5.285156 -1.253906 5.078125 -0.921875 C 4.867188 -0.585938 4.59375 -0.332031 4.25 -0.15625 C 3.914062 0.0195312 3.503906 0.109375 3.015625 0.109375 C 2.410156 0.109375 1.910156 -0.046875 1.515625 -0.359375 C 1.128906 -0.671875 0.84375 -1.113281 0.65625 -1.6875 C 0.46875 -2.269531 0.375 -2.96875 0.375 -3.78125 C 0.375 -4.59375 0.457031 -5.289062 0.625 -5.875 C 0.800781 -6.457031 1.082031 -6.90625 1.46875 -7.21875 C 1.851562 -7.53125 2.367188 -7.6875 3.015625 -7.6875 C 3.617188 -7.6875 4.113281 -7.53125 4.5 -7.21875 C 4.894531 -6.90625 5.1875 -6.457031 5.375 -5.875 C 5.570312 -5.300781 5.671875 -4.601562 5.671875 -3.78125 Z M 1.96875 -3.78125 C 1.96875 -3.207031 2 -2.726562 2.0625 -2.34375 C 2.125 -1.957031 2.234375 -1.664062 2.390625 -1.46875 C 2.546875 -1.28125 2.753906 -1.1875 3.015625 -1.1875 C 3.285156 -1.1875 3.492188 -1.28125 3.640625 -1.46875 C 3.796875 -1.664062 3.90625 -1.953125 3.96875 -2.328125 C 4.039062 -2.710938 4.078125 -3.195312 4.078125 -3.78125 C 4.078125 -4.351562 4.039062 -4.832031 3.96875 -5.21875 C 3.90625 -5.601562 3.796875 -5.894531 3.640625 -6.09375 C 3.492188 -6.289062 3.285156 -6.390625 3.015625 -6.390625 C 2.753906 -6.390625 2.546875 -6.289062 2.390625 -6.09375 C 2.234375 -5.894531 2.125 -5.601562 2.0625 -5.21875 C 2 -4.832031 1.96875 -4.351562 1.96875 -3.78125 Z M 1.96875 -3.78125 "/></g></g></g><g fill="#169d53" fill-opacity="1"><g transform="translate(30.485149, 11.524724)"><g><path d="M 5.703125 0 L 0.421875 0 L 0.421875 -1.109375 L 2.328125 -3.03125 C 2.703125 -3.425781 3.003906 -3.753906 3.234375 -4.015625 C 3.472656 -4.273438 3.644531 -4.515625 3.75 -4.734375 C 3.851562 -4.953125 3.90625 -5.1875 3.90625 -5.4375 C 3.90625 -5.738281 3.820312 -5.960938 3.65625 -6.109375 C 3.488281 -6.265625 3.265625 -6.34375 2.984375 -6.34375 C 2.691406 -6.34375 2.40625 -6.273438 2.125 -6.140625 C 1.851562 -6.003906 1.566406 -5.8125 1.265625 -5.5625 L 0.40625 -6.59375 C 0.625 -6.78125 0.851562 -6.953125 1.09375 -7.109375 C 1.332031 -7.273438 1.613281 -7.410156 1.9375 -7.515625 C 2.257812 -7.617188 2.648438 -7.671875 3.109375 -7.671875 C 3.597656 -7.671875 4.019531 -7.582031 4.375 -7.40625 C 4.738281 -7.226562 5.015625 -6.984375 5.203125 -6.671875 C 5.398438 -6.359375 5.5 -6.007812 5.5 -5.625 C 5.5 -5.207031 5.414062 -4.828125 5.25 -4.484375 C 5.082031 -4.140625 4.84375 -3.796875 4.53125 -3.453125 C 4.21875 -3.117188 3.835938 -2.742188 3.390625 -2.328125 L 2.421875 -1.421875 L 2.421875 -1.34375 L 5.703125 -1.34375 Z M 5.703125 0 "/></g></g></g><g fill="#169d53" fill-opacity="1"><g transform="translate(36.024648, 11.524724)"><g><path d="M 3.171875 -4.828125 C 3.640625 -4.828125 4.050781 -4.738281 4.40625 -4.5625 C 4.769531 -4.382812 5.054688 -4.125 5.265625 -3.78125 C 5.472656 -3.445312 5.578125 -3.03125 5.578125 -2.53125 C 5.578125 -1.988281 5.460938 -1.519531 5.234375 -1.125 C 5.003906 -0.726562 4.664062 -0.421875 4.21875 -0.203125 C 3.769531 0.00390625 3.21875 0.109375 2.5625 0.109375 C 2.15625 0.109375 1.773438 0.0703125 1.421875 0 C 1.078125 -0.0625 0.773438 -0.164062 0.515625 -0.3125 L 0.515625 -1.6875 C 0.773438 -1.550781 1.085938 -1.429688 1.453125 -1.328125 C 1.828125 -1.234375 2.175781 -1.1875 2.5 -1.1875 C 2.8125 -1.1875 3.078125 -1.226562 3.296875 -1.3125 C 3.515625 -1.40625 3.679688 -1.539062 3.796875 -1.71875 C 3.910156 -1.894531 3.96875 -2.117188 3.96875 -2.390625 C 3.96875 -2.765625 3.84375 -3.046875 3.59375 -3.234375 C 3.34375 -3.429688 2.960938 -3.53125 2.453125 -3.53125 C 2.253906 -3.53125 2.046875 -3.507812 1.828125 -3.46875 C 1.617188 -3.4375 1.441406 -3.40625 1.296875 -3.375 L 0.671875 -3.703125 L 0.953125 -7.5625 L 5.046875 -7.5625 L 5.046875 -6.203125 L 2.359375 -6.203125 L 2.21875 -4.71875 C 2.332031 -4.75 2.457031 -4.773438 2.59375 -4.796875 C 2.726562 -4.816406 2.921875 -4.828125 3.171875 -4.828125 Z M 3.171875 -4.828125 "/></g></g></g></g></g></g></g></g></svg>