<svg xmlns="http://www.w3.org/2000/svg" xmlns:xlink="http://www.w3.org/1999/xlink" width="1920" zoomAndPan="magnify" viewBox="0 0 1440 809.999993" height="1080" preserveAspectRatio="xMidYMid meet" version="1.0"><defs><g/><clipPath id="fb0444cba6"><path d="M 88.273438 23.5 L 148.902344 23.5 L 148.902344 84.125 L 88.273438 84.125 Z M 88.273438 23.5 " clip-rule="nonzero"/></clipPath><clipPath id="0431750629"><path d="M 118.589844 23.5 C 101.847656 23.5 88.273438 37.070312 88.273438 53.8125 C 88.273438 70.554688 101.847656 84.125 118.589844 84.125 C 135.332031 84.125 148.902344 70.554688 148.902344 53.8125 C 148.902344 37.070312 135.332031 23.5 118.589844 23.5 Z M 118.589844 23.5 " clip-rule="nonzero"/></clipPath><clipPath id="cf12b4e3e0"><path d="M 0.273438 0.5 L 60.902344 0.5 L 60.902344 61.125 L 0.273438 61.125 Z M 0.273438 0.5 " clip-rule="nonzero"/></clipPath><clipPath id="09dc83aa1b"><path d="M 30.589844 0.5 C 13.847656 0.5 0.273438 14.070312 0.273438 30.8125 C 0.273438 47.554688 13.847656 61.125 30.589844 61.125 C 47.332031 61.125 60.902344 47.554688 60.902344 30.8125 C 60.902344 14.070312 47.332031 0.5 30.589844 0.5 Z M 30.589844 0.5 " clip-rule="nonzero"/></clipPath><clipPath id="2a1b4c5862"><rect x="0" width="61" y="0" height="62"/></clipPath><clipPath id="7ea084fc87"><path d="M 88.273438 314.15625 L 148.902344 314.15625 L 148.902344 374.78125 L 88.273438 374.78125 Z M 88.273438 314.15625 " clip-rule="nonzero"/></clipPath><clipPath id="b8ed884254"><path d="M 118.589844 314.15625 C 101.847656 314.15625 88.273438 327.726562 88.273438 344.46875 C 88.273438 361.210938 101.847656 374.78125 118.589844 374.78125 C 135.332031 374.78125 148.902344 361.210938 148.902344 344.46875 C 148.902344 327.726562 135.332031 314.15625 118.589844 314.15625 Z M 118.589844 314.15625 " clip-rule="nonzero"/></clipPath><clipPath id="df2adc9c6e"><path d="M 0.273438 0.15625 L 60.902344 0.15625 L 60.902344 60.78125 L 0.273438 60.78125 Z M 0.273438 0.15625 " clip-rule="nonzero"/></clipPath><clipPath id="731aab97aa"><path d="M 30.589844 0.15625 C 13.847656 0.15625 0.273438 13.726562 0.273438 30.46875 C 0.273438 47.210938 13.847656 60.78125 30.589844 60.78125 C 47.332031 60.78125 60.902344 47.210938 60.902344 30.46875 C 60.902344 13.726562 47.332031 0.15625 30.589844 0.15625 Z M 30.589844 0.15625 " clip-rule="nonzero"/></clipPath><clipPath id="e637d99f70"><rect x="0" width="61" y="0" height="61"/></clipPath><clipPath id="78bb1d323e"><rect x="0" width="568" y="0" height="397"/></clipPath><clipPath id="6cc6962e51"><path d="M 87.3125 23.410156 L 147.9375 23.410156 L 147.9375 84.039062 L 87.3125 84.039062 Z M 87.3125 23.410156 " clip-rule="nonzero"/></clipPath><clipPath id="887e017f15"><path d="M 117.625 23.410156 C 100.882812 23.410156 87.3125 36.984375 87.3125 53.726562 C 87.3125 70.46875 100.882812 84.039062 117.625 84.039062 C 134.367188 84.039062 147.9375 70.46875 147.9375 53.726562 C 147.9375 36.984375 134.367188 23.410156 117.625 23.410156 Z M 117.625 23.410156 " clip-rule="nonzero"/></clipPath><clipPath id="7f8cbeb17a"><path d="M 0.3125 0.410156 L 60.9375 0.410156 L 60.9375 61.039062 L 0.3125 61.039062 Z M 0.3125 0.410156 " clip-rule="nonzero"/></clipPath><clipPath id="54c6716c27"><path d="M 30.625 0.410156 C 13.882812 0.410156 0.3125 13.984375 0.3125 30.726562 C 0.3125 47.46875 13.882812 61.039062 30.625 61.039062 C 47.367188 61.039062 60.9375 47.46875 60.9375 30.726562 C 60.9375 13.984375 47.367188 0.410156 30.625 0.410156 Z M 30.625 0.410156 " clip-rule="nonzero"/></clipPath><clipPath id="06e1bf28f7"><rect x="0" width="61" y="0" height="62"/></clipPath><clipPath id="ebd84fe19d"><path d="M 87.3125 314.066406 L 147.9375 314.066406 L 147.9375 374.695312 L 87.3125 374.695312 Z M 87.3125 314.066406 " clip-rule="nonzero"/></clipPath><clipPath id="3943878c8f"><path d="M 117.625 314.066406 C 100.882812 314.066406 87.3125 327.640625 87.3125 344.382812 C 87.3125 361.125 100.882812 374.695312 117.625 374.695312 C 134.367188 374.695312 147.9375 361.125 147.9375 344.382812 C 147.9375 327.640625 134.367188 314.066406 117.625 314.066406 Z M 117.625 314.066406 " clip-rule="nonzero"/></clipPath><clipPath id="8a5b1d1fd7"><path d="M 0.3125 0.0664062 L 60.9375 0.0664062 L 60.9375 60.695312 L 0.3125 60.695312 Z M 0.3125 0.0664062 " clip-rule="nonzero"/></clipPath><clipPath id="4657ddc2e0"><path d="M 30.625 0.0664062 C 13.882812 0.0664062 0.3125 13.640625 0.3125 30.382812 C 0.3125 47.125 13.882812 60.695312 30.625 60.695312 C 47.367188 60.695312 60.9375 47.125 60.9375 30.382812 C 60.9375 13.640625 47.367188 0.0664062 30.625 0.0664062 Z M 30.625 0.0664062 " clip-rule="nonzero"/></clipPath><clipPath id="6016112ff4"><rect x="0" width="61" y="0" height="61"/></clipPath><clipPath id="ff9ee13651"><rect x="0" width="567" y="0" height="397"/></clipPath><clipPath id="e0673c151d"><rect x="0" width="422" y="0" height="250"/></clipPath><clipPath id="56af22fbba"><rect x="0" width="92" y="0" height="33"/></clipPath></defs><rect x="-144" width="1728" fill="#ffffff" y="-80.999999" height="971.999992" fill-opacity="1"/><rect x="-144" width="1728" fill="#ffffff" y="-80.999999" height="971.999992" fill-opacity="1"/><g transform="matrix(1, 0, 0, 1, 318, 279)"><g clip-path="url(#78bb1d323e)"><g fill="#169d53" fill-opacity="1"><g transform="translate(160.442917, 1.772013)"><g><path d="M -4.265625 197.265625 C -4.265625 182.773438 -1.0625 169.535156 5.34375 157.546875 C 11.75 145.566406 20.648438 136.070312 32.046875 129.0625 C 43.441406 122.0625 56.972656 118.5625 72.640625 118.5625 L 181.234375 118.5625 C 185.035156 118.5625 188.476562 117.613281 191.5625 115.71875 C 194.644531 113.820312 197.132812 111.328125 199.03125 108.234375 C 200.9375 105.148438 201.890625 101.710938 201.890625 97.921875 C 201.890625 94.117188 200.9375 90.675781 199.03125 87.59375 C 197.132812 84.507812 194.644531 82.078125 191.5625 80.296875 C 188.476562 78.515625 185.035156 77.625 181.234375 77.625 L 0 77.625 L 0 19.234375 L 176.96875 19.234375 C 191.914062 19.234375 205.085938 22.613281 216.484375 29.375 C 227.878906 36.132812 236.898438 45.507812 243.546875 57.5 C 250.191406 69.488281 253.515625 82.960938 253.515625 97.921875 C 253.515625 113.109375 250.191406 126.632812 243.546875 138.5 C 236.898438 150.375 227.878906 159.753906 216.484375 166.640625 C 205.085938 173.523438 191.914062 176.96875 176.96875 176.96875 L 68.359375 176.96875 C 64.328125 176.96875 60.765625 177.914062 57.671875 179.8125 C 54.585938 181.707031 52.15625 184.140625 50.375 187.109375 C 48.601562 190.078125 47.71875 193.34375 47.71875 196.90625 C 47.71875 200.695312 48.601562 204.195312 50.375 207.40625 C 52.15625 210.613281 54.585938 213.164062 57.671875 215.0625 C 60.765625 216.957031 64.328125 217.90625 68.359375 217.90625 L 176.96875 217.90625 C 191.914062 217.90625 205.085938 221.347656 216.484375 228.234375 C 227.878906 235.117188 236.898438 244.554688 243.546875 256.546875 C 250.191406 268.535156 253.515625 281.882812 253.515625 296.59375 C 253.515625 311.789062 250.191406 325.265625 243.546875 337.015625 C 236.898438 348.765625 227.878906 358.082031 216.484375 364.96875 C 205.085938 371.851562 191.914062 375.296875 176.96875 375.296875 L 0 375.296875 L 0 316.890625 L 181.59375 316.890625 C 185.382812 316.890625 188.765625 316 191.734375 314.21875 C 194.703125 312.4375 197.132812 310.003906 199.03125 306.921875 C 200.9375 303.835938 201.890625 300.394531 201.890625 296.59375 C 201.890625 293.039062 200.9375 289.660156 199.03125 286.453125 C 197.132812 283.242188 194.703125 280.691406 191.734375 278.796875 C 188.765625 276.898438 185.382812 275.953125 181.59375 275.953125 L 72.640625 275.953125 C 56.972656 275.953125 43.441406 272.390625 32.046875 265.265625 C 20.648438 258.140625 11.75 248.644531 5.34375 236.78125 C -1.0625 224.914062 -4.265625 211.742188 -4.265625 197.265625 Z M -4.265625 197.265625 "/></g></g></g><g clip-path="url(#fb0444cba6)"><g clip-path="url(#0431750629)"><g transform="matrix(1, 0, 0, 1, 88, 23)"><g clip-path="url(#2a1b4c5862)"><g clip-path="url(#cf12b4e3e0)"><g clip-path="url(#09dc83aa1b)"><path fill="#5e452e" d="M 0.273438 0.5 L 60.902344 0.5 L 60.902344 61.125 L 0.273438 61.125 Z M 0.273438 0.5 " fill-opacity="1" fill-rule="nonzero"/></g></g></g></g></g></g><g clip-path="url(#7ea084fc87)"><g clip-path="url(#b8ed884254)"><g transform="matrix(1, 0, 0, 1, 88, 314)"><g clip-path="url(#e637d99f70)"><g clip-path="url(#df2adc9c6e)"><g clip-path="url(#731aab97aa)"><path fill="#5e452e" d="M 0.273438 0.15625 L 60.902344 0.15625 L 60.902344 60.78125 L 0.273438 60.78125 Z M 0.273438 0.15625 " fill-opacity="1" fill-rule="nonzero"/></g></g></g></g></g></g></g></g><g transform="matrix(1, 0, 0, 1, 131, 133)"><g clip-path="url(#ff9ee13651)"><g fill="#00ca72" fill-opacity="1"><g transform="translate(159.478694, 1.685395)"><g><path d="M -4.265625 197.265625 C -4.265625 182.773438 -1.0625 169.535156 5.34375 157.546875 C 11.75 145.566406 20.648438 136.070312 32.046875 129.0625 C 43.441406 122.0625 56.972656 118.5625 72.640625 118.5625 L 181.234375 118.5625 C 185.035156 118.5625 188.476562 117.613281 191.5625 115.71875 C 194.644531 113.820312 197.132812 111.328125 199.03125 108.234375 C 200.9375 105.148438 201.890625 101.710938 201.890625 97.921875 C 201.890625 94.117188 200.9375 90.675781 199.03125 87.59375 C 197.132812 84.507812 194.644531 82.078125 191.5625 80.296875 C 188.476562 78.515625 185.035156 77.625 181.234375 77.625 L 0 77.625 L 0 19.234375 L 176.96875 19.234375 C 191.914062 19.234375 205.085938 22.613281 216.484375 29.375 C 227.878906 36.132812 236.898438 45.507812 243.546875 57.5 C 250.191406 69.488281 253.515625 82.960938 253.515625 97.921875 C 253.515625 113.109375 250.191406 126.632812 243.546875 138.5 C 236.898438 150.375 227.878906 159.753906 216.484375 166.640625 C 205.085938 173.523438 191.914062 176.96875 176.96875 176.96875 L 68.359375 176.96875 C 64.328125 176.96875 60.765625 177.914062 57.671875 179.8125 C 54.585938 181.707031 52.15625 184.140625 50.375 187.109375 C 48.601562 190.078125 47.71875 193.34375 47.71875 196.90625 C 47.71875 200.695312 48.601562 204.195312 50.375 207.40625 C 52.15625 210.613281 54.585938 213.164062 57.671875 215.0625 C 60.765625 216.957031 64.328125 217.90625 68.359375 217.90625 L 176.96875 217.90625 C 191.914062 217.90625 205.085938 221.347656 216.484375 228.234375 C 227.878906 235.117188 236.898438 244.554688 243.546875 256.546875 C 250.191406 268.535156 253.515625 281.882812 253.515625 296.59375 C 253.515625 311.789062 250.191406 325.265625 243.546875 337.015625 C 236.898438 348.765625 227.878906 358.082031 216.484375 364.96875 C 205.085938 371.851562 191.914062 375.296875 176.96875 375.296875 L 0 375.296875 L 0 316.890625 L 181.59375 316.890625 C 185.382812 316.890625 188.765625 316 191.734375 314.21875 C 194.703125 312.4375 197.132812 310.003906 199.03125 306.921875 C 200.9375 303.835938 201.890625 300.394531 201.890625 296.59375 C 201.890625 293.039062 200.9375 289.660156 199.03125 286.453125 C 197.132812 283.242188 194.703125 280.691406 191.734375 278.796875 C 188.765625 276.898438 185.382812 275.953125 181.59375 275.953125 L 72.640625 275.953125 C 56.972656 275.953125 43.441406 272.390625 32.046875 265.265625 C 20.648438 258.140625 11.75 248.644531 5.34375 236.78125 C -1.0625 224.914062 -4.265625 211.742188 -4.265625 197.265625 Z M -4.265625 197.265625 "/></g></g></g><g clip-path="url(#6cc6962e51)"><g clip-path="url(#887e017f15)"><g transform="matrix(1, 0, 0, 1, 87, 23)"><g clip-path="url(#06e1bf28f7)"><g clip-path="url(#7f8cbeb17a)"><g clip-path="url(#54c6716c27)"><path fill="#8f867e" d="M 0.3125 0.410156 L 60.9375 0.410156 L 60.9375 61.039062 L 0.3125 61.039062 Z M 0.3125 0.410156 " fill-opacity="1" fill-rule="nonzero"/></g></g></g></g></g></g><g clip-path="url(#ebd84fe19d)"><g clip-path="url(#3943878c8f)"><g transform="matrix(1, 0, 0, 1, 87, 314)"><g clip-path="url(#6016112ff4)"><g clip-path="url(#8a5b1d1fd7)"><g clip-path="url(#4657ddc2e0)"><path fill="#99928b" d="M 0.3125 0.0664062 L 60.9375 0.0664062 L 60.9375 60.695312 L 0.3125 60.695312 Z M 0.3125 0.0664062 " fill-opacity="1" fill-rule="nonzero"/></g></g></g></g></g></g></g></g><g transform="matrix(1, 0, 0, 1, 530, 207)"><g clip-path="url(#e0673c151d)"><g fill="#5e452e" fill-opacity="0.4"><g transform="translate(8.651911, 186.581926)"><g><path d="M 62.28125 2.03125 C 53.5625 2.03125 45.671875 0.578125 38.609375 -2.328125 C 31.554688 -5.234375 25.484375 -9.28125 20.390625 -14.46875 C 15.304688 -19.664062 11.390625 -25.6875 8.640625 -32.53125 C 5.890625 -39.382812 4.515625 -46.753906 4.515625 -54.640625 C 4.515625 -62.535156 5.890625 -69.90625 8.640625 -76.75 C 11.390625 -83.601562 15.28125 -89.597656 20.3125 -94.734375 C 25.351562 -99.867188 31.425781 -103.863281 38.53125 -106.71875 C 45.644531 -109.570312 53.5625 -111 62.28125 -111 C 70.894531 -111 78.753906 -109.570312 85.859375 -106.71875 C 92.972656 -103.863281 99.046875 -99.867188 104.078125 -94.734375 C 109.109375 -89.597656 113.023438 -83.578125 115.828125 -76.671875 C 118.628906 -69.773438 120.03125 -62.429688 120.03125 -54.640625 C 120.03125 -46.753906 118.628906 -39.382812 115.828125 -32.53125 C 113.023438 -25.6875 109.109375 -19.664062 104.078125 -14.46875 C 99.046875 -9.28125 92.972656 -5.234375 85.859375 -2.328125 C 78.753906 0.578125 70.894531 2.03125 62.28125 2.03125 Z M 62.28125 -20.234375 C 66.84375 -20.234375 71.066406 -21.085938 74.953125 -22.796875 C 78.847656 -24.515625 82.195312 -26.929688 85 -30.046875 C 87.800781 -33.160156 89.976562 -36.816406 91.53125 -41.015625 C 93.09375 -45.222656 93.875 -49.765625 93.875 -54.640625 C 93.875 -59.523438 93.09375 -64.039062 91.53125 -68.1875 C 89.976562 -72.34375 87.800781 -75.976562 85 -79.09375 C 82.195312 -82.207031 78.847656 -84.617188 74.953125 -86.328125 C 71.066406 -88.035156 66.84375 -88.890625 62.28125 -88.890625 C 57.601562 -88.890625 53.34375 -88.035156 49.5 -86.328125 C 45.664062 -84.617188 42.320312 -82.207031 39.46875 -79.09375 C 36.613281 -75.976562 34.429688 -72.316406 32.921875 -68.109375 C 31.421875 -63.910156 30.671875 -59.421875 30.671875 -54.640625 C 30.671875 -49.765625 31.421875 -45.222656 32.921875 -41.015625 C 34.429688 -36.816406 36.613281 -33.160156 39.46875 -30.046875 C 42.320312 -26.929688 45.664062 -24.515625 49.5 -22.796875 C 53.34375 -21.085938 57.601562 -20.234375 62.28125 -20.234375 Z M 62.28125 -20.234375 "/></g></g></g><g fill="#5e452e" fill-opacity="0.4"><g transform="translate(125.409915, 186.581926)"><g><path d="M 62.28125 2.03125 C 53.5625 2.03125 45.671875 0.578125 38.609375 -2.328125 C 31.554688 -5.234375 25.484375 -9.28125 20.390625 -14.46875 C 15.304688 -19.664062 11.390625 -25.6875 8.640625 -32.53125 C 5.890625 -39.382812 4.515625 -46.753906 4.515625 -54.640625 C 4.515625 -62.535156 5.890625 -69.90625 8.640625 -76.75 C 11.390625 -83.601562 15.28125 -89.597656 20.3125 -94.734375 C 25.351562 -99.867188 31.425781 -103.863281 38.53125 -106.71875 C 45.644531 -109.570312 53.5625 -111 62.28125 -111 C 70.894531 -111 78.753906 -109.570312 85.859375 -106.71875 C 92.972656 -103.863281 99.046875 -99.867188 104.078125 -94.734375 C 109.109375 -89.597656 113.023438 -83.578125 115.828125 -76.671875 C 118.628906 -69.773438 120.03125 -62.429688 120.03125 -54.640625 C 120.03125 -46.753906 118.628906 -39.382812 115.828125 -32.53125 C 113.023438 -25.6875 109.109375 -19.664062 104.078125 -14.46875 C 99.046875 -9.28125 92.972656 -5.234375 85.859375 -2.328125 C 78.753906 0.578125 70.894531 2.03125 62.28125 2.03125 Z M 62.28125 -20.234375 C 66.84375 -20.234375 71.066406 -21.085938 74.953125 -22.796875 C 78.847656 -24.515625 82.195312 -26.929688 85 -30.046875 C 87.800781 -33.160156 89.976562 -36.816406 91.53125 -41.015625 C 93.09375 -45.222656 93.875 -49.765625 93.875 -54.640625 C 93.875 -59.523438 93.09375 -64.039062 91.53125 -68.1875 C 89.976562 -72.34375 87.800781 -75.976562 85 -79.09375 C 82.195312 -82.207031 78.847656 -84.617188 74.953125 -86.328125 C 71.066406 -88.035156 66.84375 -88.890625 62.28125 -88.890625 C 57.601562 -88.890625 53.34375 -88.035156 49.5 -86.328125 C 45.664062 -84.617188 42.320312 -82.207031 39.46875 -79.09375 C 36.613281 -75.976562 34.429688 -72.316406 32.921875 -68.109375 C 31.421875 -63.910156 30.671875 -59.421875 30.671875 -54.640625 C 30.671875 -49.765625 31.421875 -45.222656 32.921875 -41.015625 C 34.429688 -36.816406 36.613281 -33.160156 39.46875 -30.046875 C 42.320312 -26.929688 45.664062 -24.515625 49.5 -22.796875 C 53.34375 -21.085938 57.601562 -20.234375 62.28125 -20.234375 Z M 62.28125 -20.234375 "/></g></g></g><g fill="#5e452e" fill-opacity="0.4"><g transform="translate(242.167919, 186.581926)"><g><path d="M 10.125 0 L 10.125 -21.796875 L 56.671875 -21.796875 C 58.742188 -21.796875 60.609375 -22.3125 62.265625 -23.34375 C 63.929688 -24.382812 65.253906 -25.734375 66.234375 -27.390625 C 67.222656 -29.054688 67.71875 -30.875 67.71875 -32.84375 C 67.71875 -34.925781 67.222656 -36.796875 66.234375 -38.453125 C 65.253906 -40.117188 63.929688 -41.46875 62.265625 -42.5 C 60.609375 -43.539062 58.742188 -44.0625 56.671875 -44.0625 L 39.859375 -44.0625 C 33.523438 -44.0625 27.765625 -45.304688 22.578125 -47.796875 C 17.390625 -50.285156 13.265625 -53.941406 10.203125 -58.765625 C 7.140625 -63.597656 5.609375 -69.382812 5.609375 -76.125 C 5.609375 -82.769531 7.0625 -88.53125 9.96875 -93.40625 C 12.875 -98.289062 16.816406 -102.109375 21.796875 -104.859375 C 26.773438 -107.609375 32.273438 -108.984375 38.296875 -108.984375 L 86.40625 -108.984375 L 86.40625 -87.1875 L 41.25 -87.1875 C 39.382812 -87.1875 37.671875 -86.71875 36.109375 -85.78125 C 34.554688 -84.84375 33.363281 -83.597656 32.53125 -82.046875 C 31.707031 -80.492188 31.296875 -78.78125 31.296875 -76.90625 C 31.296875 -75.039062 31.707031 -73.351562 32.53125 -71.84375 C 33.363281 -70.34375 34.554688 -69.125 36.109375 -68.1875 C 37.671875 -67.257812 39.382812 -66.796875 41.25 -66.796875 L 58.84375 -66.796875 C 65.800781 -66.796875 71.847656 -65.46875 76.984375 -62.8125 C 82.117188 -60.164062 86.113281 -56.484375 88.96875 -51.765625 C 91.820312 -47.046875 93.25 -41.519531 93.25 -35.1875 C 93.25 -27.707031 91.769531 -21.347656 88.8125 -16.109375 C 85.851562 -10.867188 81.882812 -6.875 76.90625 -4.125 C 71.925781 -1.375 66.425781 0 60.40625 0 Z M 10.125 0 "/></g></g></g><g fill="#5e452e" fill-opacity="0.4"><g transform="translate(332.771886, 186.581926)"><g><path d="M 65.546875 0 C 58.898438 0 53.0625 -1.476562 48.03125 -4.4375 C 43 -7.394531 39.054688 -11.363281 36.203125 -16.34375 C 33.347656 -21.320312 31.921875 -26.875 31.921875 -33 L 31.921875 -87.1875 L 2.328125 -87.1875 L 2.328125 -108.984375 L 87.5 -108.984375 L 87.5 -87.1875 L 58.078125 -87.1875 L 58.078125 -30.671875 C 58.078125 -28.285156 58.90625 -26.207031 60.5625 -24.4375 C 62.21875 -22.675781 64.296875 -21.796875 66.796875 -21.796875 L 75.359375 -21.796875 L 75.359375 0 Z M 65.546875 0 "/></g></g></g><g fill="#ffe88c" fill-opacity="1"><g transform="translate(1.770895, 179.700882)"><g><path d="M 62.28125 2.03125 C 53.5625 2.03125 45.671875 0.578125 38.609375 -2.328125 C 31.554688 -5.234375 25.484375 -9.28125 20.390625 -14.46875 C 15.304688 -19.664062 11.390625 -25.6875 8.640625 -32.53125 C 5.890625 -39.382812 4.515625 -46.753906 4.515625 -54.640625 C 4.515625 -62.535156 5.890625 -69.90625 8.640625 -76.75 C 11.390625 -83.601562 15.28125 -89.597656 20.3125 -94.734375 C 25.351562 -99.867188 31.425781 -103.863281 38.53125 -106.71875 C 45.644531 -109.570312 53.5625 -111 62.28125 -111 C 70.894531 -111 78.753906 -109.570312 85.859375 -106.71875 C 92.972656 -103.863281 99.046875 -99.867188 104.078125 -94.734375 C 109.109375 -89.597656 113.023438 -83.578125 115.828125 -76.671875 C 118.628906 -69.773438 120.03125 -62.429688 120.03125 -54.640625 C 120.03125 -46.753906 118.628906 -39.382812 115.828125 -32.53125 C 113.023438 -25.6875 109.109375 -19.664062 104.078125 -14.46875 C 99.046875 -9.28125 92.972656 -5.234375 85.859375 -2.328125 C 78.753906 0.578125 70.894531 2.03125 62.28125 2.03125 Z M 62.28125 -20.234375 C 66.84375 -20.234375 71.066406 -21.085938 74.953125 -22.796875 C 78.847656 -24.515625 82.195312 -26.929688 85 -30.046875 C 87.800781 -33.160156 89.976562 -36.816406 91.53125 -41.015625 C 93.09375 -45.222656 93.875 -49.765625 93.875 -54.640625 C 93.875 -59.523438 93.09375 -64.039062 91.53125 -68.1875 C 89.976562 -72.34375 87.800781 -75.976562 85 -79.09375 C 82.195312 -82.207031 78.847656 -84.617188 74.953125 -86.328125 C 71.066406 -88.035156 66.84375 -88.890625 62.28125 -88.890625 C 57.601562 -88.890625 53.34375 -88.035156 49.5 -86.328125 C 45.664062 -84.617188 42.320312 -82.207031 39.46875 -79.09375 C 36.613281 -75.976562 34.429688 -72.316406 32.921875 -68.109375 C 31.421875 -63.910156 30.671875 -59.421875 30.671875 -54.640625 C 30.671875 -49.765625 31.421875 -45.222656 32.921875 -41.015625 C 34.429688 -36.816406 36.613281 -33.160156 39.46875 -30.046875 C 42.320312 -26.929688 45.664062 -24.515625 49.5 -22.796875 C 53.34375 -21.085938 57.601562 -20.234375 62.28125 -20.234375 Z M 62.28125 -20.234375 "/></g></g></g><g fill="#ffe88c" fill-opacity="1"><g transform="translate(118.528899, 179.700882)"><g><path d="M 62.28125 2.03125 C 53.5625 2.03125 45.671875 0.578125 38.609375 -2.328125 C 31.554688 -5.234375 25.484375 -9.28125 20.390625 -14.46875 C 15.304688 -19.664062 11.390625 -25.6875 8.640625 -32.53125 C 5.890625 -39.382812 4.515625 -46.753906 4.515625 -54.640625 C 4.515625 -62.535156 5.890625 -69.90625 8.640625 -76.75 C 11.390625 -83.601562 15.28125 -89.597656 20.3125 -94.734375 C 25.351562 -99.867188 31.425781 -103.863281 38.53125 -106.71875 C 45.644531 -109.570312 53.5625 -111 62.28125 -111 C 70.894531 -111 78.753906 -109.570312 85.859375 -106.71875 C 92.972656 -103.863281 99.046875 -99.867188 104.078125 -94.734375 C 109.109375 -89.597656 113.023438 -83.578125 115.828125 -76.671875 C 118.628906 -69.773438 120.03125 -62.429688 120.03125 -54.640625 C 120.03125 -46.753906 118.628906 -39.382812 115.828125 -32.53125 C 113.023438 -25.6875 109.109375 -19.664062 104.078125 -14.46875 C 99.046875 -9.28125 92.972656 -5.234375 85.859375 -2.328125 C 78.753906 0.578125 70.894531 2.03125 62.28125 2.03125 Z M 62.28125 -20.234375 C 66.84375 -20.234375 71.066406 -21.085938 74.953125 -22.796875 C 78.847656 -24.515625 82.195312 -26.929688 85 -30.046875 C 87.800781 -33.160156 89.976562 -36.816406 91.53125 -41.015625 C 93.09375 -45.222656 93.875 -49.765625 93.875 -54.640625 C 93.875 -59.523438 93.09375 -64.039062 91.53125 -68.1875 C 89.976562 -72.34375 87.800781 -75.976562 85 -79.09375 C 82.195312 -82.207031 78.847656 -84.617188 74.953125 -86.328125 C 71.066406 -88.035156 66.84375 -88.890625 62.28125 -88.890625 C 57.601562 -88.890625 53.34375 -88.035156 49.5 -86.328125 C 45.664062 -84.617188 42.320312 -82.207031 39.46875 -79.09375 C 36.613281 -75.976562 34.429688 -72.316406 32.921875 -68.109375 C 31.421875 -63.910156 30.671875 -59.421875 30.671875 -54.640625 C 30.671875 -49.765625 31.421875 -45.222656 32.921875 -41.015625 C 34.429688 -36.816406 36.613281 -33.160156 39.46875 -30.046875 C 42.320312 -26.929688 45.664062 -24.515625 49.5 -22.796875 C 53.34375 -21.085938 57.601562 -20.234375 62.28125 -20.234375 Z M 62.28125 -20.234375 "/></g></g></g><g fill="#ffe88c" fill-opacity="1"><g transform="translate(235.286903, 179.700882)"><g><path d="M 10.125 0 L 10.125 -21.796875 L 56.671875 -21.796875 C 58.742188 -21.796875 60.609375 -22.3125 62.265625 -23.34375 C 63.929688 -24.382812 65.253906 -25.734375 66.234375 -27.390625 C 67.222656 -29.054688 67.71875 -30.875 67.71875 -32.84375 C 67.71875 -34.925781 67.222656 -36.796875 66.234375 -38.453125 C 65.253906 -40.117188 63.929688 -41.46875 62.265625 -42.5 C 60.609375 -43.539062 58.742188 -44.0625 56.671875 -44.0625 L 39.859375 -44.0625 C 33.523438 -44.0625 27.765625 -45.304688 22.578125 -47.796875 C 17.390625 -50.285156 13.265625 -53.941406 10.203125 -58.765625 C 7.140625 -63.597656 5.609375 -69.382812 5.609375 -76.125 C 5.609375 -82.769531 7.0625 -88.53125 9.96875 -93.40625 C 12.875 -98.289062 16.816406 -102.109375 21.796875 -104.859375 C 26.773438 -107.609375 32.273438 -108.984375 38.296875 -108.984375 L 86.40625 -108.984375 L 86.40625 -87.1875 L 41.25 -87.1875 C 39.382812 -87.1875 37.671875 -86.71875 36.109375 -85.78125 C 34.554688 -84.84375 33.363281 -83.597656 32.53125 -82.046875 C 31.707031 -80.492188 31.296875 -78.78125 31.296875 -76.90625 C 31.296875 -75.039062 31.707031 -73.351562 32.53125 -71.84375 C 33.363281 -70.34375 34.554688 -69.125 36.109375 -68.1875 C 37.671875 -67.257812 39.382812 -66.796875 41.25 -66.796875 L 58.84375 -66.796875 C 65.800781 -66.796875 71.847656 -65.46875 76.984375 -62.8125 C 82.117188 -60.164062 86.113281 -56.484375 88.96875 -51.765625 C 91.820312 -47.046875 93.25 -41.519531 93.25 -35.1875 C 93.25 -27.707031 91.769531 -21.347656 88.8125 -16.109375 C 85.851562 -10.867188 81.882812 -6.875 76.90625 -4.125 C 71.925781 -1.375 66.425781 0 60.40625 0 Z M 10.125 0 "/></g></g></g><g fill="#ffe88c" fill-opacity="1"><g transform="translate(325.890871, 179.700882)"><g><path d="M 65.546875 0 C 58.898438 0 53.0625 -1.476562 48.03125 -4.4375 C 43 -7.394531 39.054688 -11.363281 36.203125 -16.34375 C 33.347656 -21.320312 31.921875 -26.875 31.921875 -33 L 31.921875 -87.1875 L 2.328125 -87.1875 L 2.328125 -108.984375 L 87.5 -108.984375 L 87.5 -87.1875 L 58.078125 -87.1875 L 58.078125 -30.671875 C 58.078125 -28.285156 58.90625 -26.207031 60.5625 -24.4375 C 62.21875 -22.675781 64.296875 -21.796875 66.796875 -21.796875 L 75.359375 -21.796875 L 75.359375 0 Z M 65.546875 0 "/></g></g></g></g></g><g fill="#5e452e" fill-opacity="0.4"><g transform="translate(700.413479, 539.312599)"><g><path d="M 0 0 L 35.40625 -96.5625 C 37.175781 -101.34375 40.085938 -104.957031 44.140625 -107.40625 C 48.203125 -109.851562 52.78125 -111.078125 57.875 -111.078125 C 62.96875 -111.078125 67.539062 -109.90625 71.59375 -107.5625 C 75.65625 -105.21875 78.570312 -101.601562 80.34375 -96.71875 L 115.90625 0 L 87.671875 0 L 80.8125 -21.0625 L 34.46875 -21.0625 L 27.296875 0 Z M 41.1875 -42.75 L 74.09375 -42.75 L 60.21875 -86.265625 C 60.007812 -86.890625 59.722656 -87.332031 59.359375 -87.59375 C 58.992188 -87.851562 58.550781 -87.984375 58.03125 -87.984375 C 57.507812 -87.984375 57.066406 -87.828125 56.703125 -87.515625 C 56.335938 -87.203125 56.101562 -86.785156 56 -86.265625 Z M 41.1875 -42.75 "/></g></g></g><g fill="#5e452e" fill-opacity="0.4"><g transform="translate(808.677455, 539.312599)"><g><path d="M 88.140625 34.015625 C 81.691406 34.015625 76.175781 32.867188 71.59375 30.578125 C 67.019531 28.285156 63.535156 25.054688 61.140625 20.890625 C 58.753906 16.734375 57.5625 11.898438 57.5625 6.390625 C 57.5625 5.253906 57.585938 4.085938 57.640625 2.890625 C 57.691406 1.691406 57.820312 0.414062 58.03125 -0.9375 C 50.019531 -1.039062 42.738281 -2.546875 36.1875 -5.453125 C 29.632812 -8.367188 23.992188 -12.320312 19.265625 -17.3125 C 14.535156 -22.300781 10.894531 -28.097656 8.34375 -34.703125 C 5.800781 -41.304688 4.53125 -48.351562 4.53125 -55.84375 C 4.53125 -63.539062 5.851562 -70.71875 8.5 -77.375 C 11.15625 -84.03125 14.953125 -89.878906 19.890625 -94.921875 C 24.828125 -99.960938 30.78125 -103.914062 37.75 -106.78125 C 44.71875 -109.644531 52.46875 -111.078125 61 -111.078125 C 69.519531 -111.078125 77.265625 -109.722656 84.234375 -107.015625 C 91.203125 -104.304688 97.179688 -100.457031 102.171875 -95.46875 C 107.171875 -90.476562 110.992188 -84.707031 113.640625 -78.15625 C 116.296875 -71.601562 117.625 -64.476562 117.625 -56.78125 L 117.625 3.28125 C 117.625 8.789062 116.554688 13.882812 114.421875 18.5625 C 112.296875 23.238281 109.046875 26.984375 104.671875 29.796875 C 100.304688 32.609375 94.796875 34.015625 88.140625 34.015625 Z M 86.734375 11.703125 C 88.710938 11.703125 90.242188 10.894531 91.328125 9.28125 C 92.421875 7.664062 92.96875 5.5625 92.96875 2.96875 L 92.96875 -22.46875 C 90.789062 -20.59375 88.894531 -18.664062 87.28125 -16.6875 C 85.664062 -14.71875 84.390625 -12.664062 83.453125 -10.53125 C 82.523438 -8.394531 81.828125 -6.207031 81.359375 -3.96875 C 80.890625 -1.738281 80.65625 0.570312 80.65625 2.96875 C 80.65625 4.832031 80.914062 6.414062 81.4375 7.71875 C 81.957031 9.019531 82.707031 10.007812 83.6875 10.6875 C 84.675781 11.363281 85.691406 11.703125 86.734375 11.703125 Z M 60.0625 -23.09375 C 61.207031 -23.09375 62.269531 -23.144531 63.25 -23.25 C 64.238281 -23.351562 65.253906 -23.507812 66.296875 -23.71875 C 68.171875 -26.519531 70.351562 -29.296875 72.84375 -32.046875 C 75.34375 -34.804688 78.148438 -37.484375 81.265625 -40.078125 C 84.390625 -42.679688 87.828125 -45.128906 91.578125 -47.421875 L 91.578125 -57.5625 C 91.578125 -62.03125 90.820312 -66.1875 89.3125 -70.03125 C 87.800781 -73.882812 85.664062 -77.210938 82.90625 -80.015625 C 80.15625 -82.828125 76.929688 -85.015625 73.234375 -86.578125 C 69.546875 -88.140625 65.519531 -88.921875 61.15625 -88.921875 C 56.78125 -88.921875 52.75 -88.113281 49.0625 -86.5 C 45.375 -84.882812 42.148438 -82.566406 39.390625 -79.546875 C 36.628906 -76.535156 34.492188 -73.03125 32.984375 -69.03125 C 31.484375 -65.03125 30.734375 -60.6875 30.734375 -56 C 30.734375 -51.320312 31.429688 -47.003906 32.828125 -43.046875 C 34.234375 -39.097656 36.265625 -35.640625 38.921875 -32.671875 C 41.578125 -29.710938 44.695312 -27.398438 48.28125 -25.734375 C 51.863281 -24.078125 55.789062 -23.195312 60.0625 -23.09375 Z M 60.0625 -23.09375 "/></g></g></g><g fill="#5e452e" fill-opacity="0.4"><g transform="translate(925.83342, 539.312599)"><g><path d="M 55.53125 1.875 C 46.488281 1.875 38.457031 0.0546875 31.4375 -3.578125 C 24.414062 -7.222656 18.925781 -12.425781 14.96875 -19.1875 C 11.019531 -25.945312 9.046875 -34.007812 9.046875 -43.375 L 9.046875 -109.203125 L 34.9375 -109.203125 L 34.9375 -41.96875 C 34.9375 -37.90625 35.769531 -34.234375 37.4375 -30.953125 C 39.101562 -27.679688 41.492188 -25.082031 44.609375 -23.15625 C 47.734375 -21.238281 51.375 -20.28125 55.53125 -20.28125 C 59.800781 -20.28125 63.46875 -21.238281 66.53125 -23.15625 C 69.601562 -25.082031 71.96875 -27.679688 73.625 -30.953125 C 75.289062 -34.234375 76.125 -37.90625 76.125 -41.96875 L 76.125 -109.203125 L 102.03125 -109.203125 L 102.03125 -43.375 C 102.03125 -34.007812 100.023438 -25.945312 96.015625 -19.1875 C 92.015625 -12.425781 86.53125 -7.222656 79.5625 -3.578125 C 72.59375 0.0546875 64.582031 1.875 55.53125 1.875 Z M 55.53125 1.875 "/></g></g></g><g fill="#5e452e" fill-opacity="0.4"><g transform="translate(1029.105403, 539.312599)"><g><path d="M 7.015625 0 L 7.015625 -21.84375 L 25.890625 -21.84375 L 25.890625 -87.359375 L 7.015625 -87.359375 L 7.015625 -109.203125 L 70.828125 -109.203125 L 70.828125 -87.359375 L 51.953125 -87.359375 L 51.953125 -21.84375 L 70.828125 -21.84375 L 70.828125 0 Z M 7.015625 0 "/></g></g></g><g fill="#5e452e" fill-opacity="0.4"><g transform="translate(1099.305381, 539.312599)"><g><path d="M 62.40625 2.03125 C 53.664062 2.03125 45.757812 0.578125 38.6875 -2.328125 C 31.613281 -5.242188 25.53125 -9.300781 20.4375 -14.5 C 15.34375 -19.707031 11.414062 -25.742188 8.65625 -32.609375 C 5.90625 -39.472656 4.53125 -46.851562 4.53125 -54.75 C 4.53125 -62.65625 5.90625 -70.039062 8.65625 -76.90625 C 11.414062 -83.769531 15.316406 -89.773438 20.359375 -94.921875 C 25.398438 -100.066406 31.484375 -104.070312 38.609375 -106.9375 C 45.734375 -109.800781 53.664062 -111.234375 62.40625 -111.234375 C 71.03125 -111.234375 78.90625 -109.800781 86.03125 -106.9375 C 93.15625 -104.070312 99.238281 -100.066406 104.28125 -94.921875 C 109.332031 -89.773438 113.257812 -83.742188 116.0625 -76.828125 C 118.875 -69.910156 120.28125 -62.550781 120.28125 -54.75 C 120.28125 -46.851562 118.875 -39.472656 116.0625 -32.609375 C 113.257812 -25.742188 109.332031 -19.707031 104.28125 -14.5 C 99.238281 -9.300781 93.15625 -5.242188 86.03125 -2.328125 C 78.90625 0.578125 71.03125 2.03125 62.40625 2.03125 Z M 62.40625 -20.28125 C 66.976562 -20.28125 71.210938 -21.132812 75.109375 -22.84375 C 79.015625 -24.5625 82.367188 -26.976562 85.171875 -30.09375 C 87.984375 -33.21875 90.164062 -36.882812 91.71875 -41.09375 C 93.28125 -45.3125 94.0625 -49.863281 94.0625 -54.75 C 94.0625 -59.644531 93.28125 -64.171875 91.71875 -68.328125 C 90.164062 -72.484375 87.984375 -76.117188 85.171875 -79.234375 C 82.367188 -82.359375 79.015625 -84.78125 75.109375 -86.5 C 71.210938 -88.21875 66.976562 -89.078125 62.40625 -89.078125 C 57.71875 -89.078125 53.453125 -88.21875 49.609375 -86.5 C 45.765625 -84.78125 42.410156 -82.359375 39.546875 -79.234375 C 36.679688 -76.117188 34.492188 -72.457031 32.984375 -68.25 C 31.484375 -64.039062 30.734375 -59.539062 30.734375 -54.75 C 30.734375 -49.863281 31.484375 -45.3125 32.984375 -41.09375 C 34.492188 -36.882812 36.679688 -33.21875 39.546875 -30.09375 C 42.410156 -26.976562 45.765625 -24.5625 49.609375 -22.84375 C 53.453125 -21.132812 57.71875 -20.28125 62.40625 -20.28125 Z M 62.40625 -20.28125 "/></g></g></g><g fill="#ffe88c" fill-opacity="1"><g transform="translate(693.519168, 532.418314)"><g><path d="M 0 0 L 35.40625 -96.5625 C 37.175781 -101.34375 40.085938 -104.957031 44.140625 -107.40625 C 48.203125 -109.851562 52.78125 -111.078125 57.875 -111.078125 C 62.96875 -111.078125 67.539062 -109.90625 71.59375 -107.5625 C 75.65625 -105.21875 78.570312 -101.601562 80.34375 -96.71875 L 115.90625 0 L 87.671875 0 L 80.8125 -21.0625 L 34.46875 -21.0625 L 27.296875 0 Z M 41.1875 -42.75 L 74.09375 -42.75 L 60.21875 -86.265625 C 60.007812 -86.890625 59.722656 -87.332031 59.359375 -87.59375 C 58.992188 -87.851562 58.550781 -87.984375 58.03125 -87.984375 C 57.507812 -87.984375 57.066406 -87.828125 56.703125 -87.515625 C 56.335938 -87.203125 56.101562 -86.785156 56 -86.265625 Z M 41.1875 -42.75 "/></g></g></g><g fill="#ffe88c" fill-opacity="1"><g transform="translate(801.783143, 532.418314)"><g><path d="M 88.140625 34.015625 C 81.691406 34.015625 76.175781 32.867188 71.59375 30.578125 C 67.019531 28.285156 63.535156 25.054688 61.140625 20.890625 C 58.753906 16.734375 57.5625 11.898438 57.5625 6.390625 C 57.5625 5.253906 57.585938 4.085938 57.640625 2.890625 C 57.691406 1.691406 57.820312 0.414062 58.03125 -0.9375 C 50.019531 -1.039062 42.738281 -2.546875 36.1875 -5.453125 C 29.632812 -8.367188 23.992188 -12.320312 19.265625 -17.3125 C 14.535156 -22.300781 10.894531 -28.097656 8.34375 -34.703125 C 5.800781 -41.304688 4.53125 -48.351562 4.53125 -55.84375 C 4.53125 -63.539062 5.851562 -70.71875 8.5 -77.375 C 11.15625 -84.03125 14.953125 -89.878906 19.890625 -94.921875 C 24.828125 -99.960938 30.78125 -103.914062 37.75 -106.78125 C 44.71875 -109.644531 52.46875 -111.078125 61 -111.078125 C 69.519531 -111.078125 77.265625 -109.722656 84.234375 -107.015625 C 91.203125 -104.304688 97.179688 -100.457031 102.171875 -95.46875 C 107.171875 -90.476562 110.992188 -84.707031 113.640625 -78.15625 C 116.296875 -71.601562 117.625 -64.476562 117.625 -56.78125 L 117.625 3.28125 C 117.625 8.789062 116.554688 13.882812 114.421875 18.5625 C 112.296875 23.238281 109.046875 26.984375 104.671875 29.796875 C 100.304688 32.609375 94.796875 34.015625 88.140625 34.015625 Z M 86.734375 11.703125 C 88.710938 11.703125 90.242188 10.894531 91.328125 9.28125 C 92.421875 7.664062 92.96875 5.5625 92.96875 2.96875 L 92.96875 -22.46875 C 90.789062 -20.59375 88.894531 -18.664062 87.28125 -16.6875 C 85.664062 -14.71875 84.390625 -12.664062 83.453125 -10.53125 C 82.523438 -8.394531 81.828125 -6.207031 81.359375 -3.96875 C 80.890625 -1.738281 80.65625 0.570312 80.65625 2.96875 C 80.65625 4.832031 80.914062 6.414062 81.4375 7.71875 C 81.957031 9.019531 82.707031 10.007812 83.6875 10.6875 C 84.675781 11.363281 85.691406 11.703125 86.734375 11.703125 Z M 60.0625 -23.09375 C 61.207031 -23.09375 62.269531 -23.144531 63.25 -23.25 C 64.238281 -23.351562 65.253906 -23.507812 66.296875 -23.71875 C 68.171875 -26.519531 70.351562 -29.296875 72.84375 -32.046875 C 75.34375 -34.804688 78.148438 -37.484375 81.265625 -40.078125 C 84.390625 -42.679688 87.828125 -45.128906 91.578125 -47.421875 L 91.578125 -57.5625 C 91.578125 -62.03125 90.820312 -66.1875 89.3125 -70.03125 C 87.800781 -73.882812 85.664062 -77.210938 82.90625 -80.015625 C 80.15625 -82.828125 76.929688 -85.015625 73.234375 -86.578125 C 69.546875 -88.140625 65.519531 -88.921875 61.15625 -88.921875 C 56.78125 -88.921875 52.75 -88.113281 49.0625 -86.5 C 45.375 -84.882812 42.148438 -82.566406 39.390625 -79.546875 C 36.628906 -76.535156 34.492188 -73.03125 32.984375 -69.03125 C 31.484375 -65.03125 30.734375 -60.6875 30.734375 -56 C 30.734375 -51.320312 31.429688 -47.003906 32.828125 -43.046875 C 34.234375 -39.097656 36.265625 -35.640625 38.921875 -32.671875 C 41.578125 -29.710938 44.695312 -27.398438 48.28125 -25.734375 C 51.863281 -24.078125 55.789062 -23.195312 60.0625 -23.09375 Z M 60.0625 -23.09375 "/></g></g></g><g fill="#ffe88c" fill-opacity="1"><g transform="translate(918.939108, 532.418314)"><g><path d="M 55.53125 1.875 C 46.488281 1.875 38.457031 0.0546875 31.4375 -3.578125 C 24.414062 -7.222656 18.925781 -12.425781 14.96875 -19.1875 C 11.019531 -25.945312 9.046875 -34.007812 9.046875 -43.375 L 9.046875 -109.203125 L 34.9375 -109.203125 L 34.9375 -41.96875 C 34.9375 -37.90625 35.769531 -34.234375 37.4375 -30.953125 C 39.101562 -27.679688 41.492188 -25.082031 44.609375 -23.15625 C 47.734375 -21.238281 51.375 -20.28125 55.53125 -20.28125 C 59.800781 -20.28125 63.46875 -21.238281 66.53125 -23.15625 C 69.601562 -25.082031 71.96875 -27.679688 73.625 -30.953125 C 75.289062 -34.234375 76.125 -37.90625 76.125 -41.96875 L 76.125 -109.203125 L 102.03125 -109.203125 L 102.03125 -43.375 C 102.03125 -34.007812 100.023438 -25.945312 96.015625 -19.1875 C 92.015625 -12.425781 86.53125 -7.222656 79.5625 -3.578125 C 72.59375 0.0546875 64.582031 1.875 55.53125 1.875 Z M 55.53125 1.875 "/></g></g></g><g fill="#ffe88c" fill-opacity="1"><g transform="translate(1022.211091, 532.418314)"><g><path d="M 7.015625 0 L 7.015625 -21.84375 L 25.890625 -21.84375 L 25.890625 -87.359375 L 7.015625 -87.359375 L 7.015625 -109.203125 L 70.828125 -109.203125 L 70.828125 -87.359375 L 51.953125 -87.359375 L 51.953125 -21.84375 L 70.828125 -21.84375 L 70.828125 0 Z M 7.015625 0 "/></g></g></g><g fill="#ffe88c" fill-opacity="1"><g transform="translate(1092.41107, 532.418314)"><g><path d="M 62.40625 2.03125 C 53.664062 2.03125 45.757812 0.578125 38.6875 -2.328125 C 31.613281 -5.242188 25.53125 -9.300781 20.4375 -14.5 C 15.34375 -19.707031 11.414062 -25.742188 8.65625 -32.609375 C 5.90625 -39.472656 4.53125 -46.851562 4.53125 -54.75 C 4.53125 -62.65625 5.90625 -70.039062 8.65625 -76.90625 C 11.414062 -83.769531 15.316406 -89.773438 20.359375 -94.921875 C 25.398438 -100.066406 31.484375 -104.070312 38.609375 -106.9375 C 45.734375 -109.800781 53.664062 -111.234375 62.40625 -111.234375 C 71.03125 -111.234375 78.90625 -109.800781 86.03125 -106.9375 C 93.15625 -104.070312 99.238281 -100.066406 104.28125 -94.921875 C 109.332031 -89.773438 113.257812 -83.742188 116.0625 -76.828125 C 118.875 -69.910156 120.28125 -62.550781 120.28125 -54.75 C 120.28125 -46.851562 118.875 -39.472656 116.0625 -32.609375 C 113.257812 -25.742188 109.332031 -19.707031 104.28125 -14.5 C 99.238281 -9.300781 93.15625 -5.242188 86.03125 -2.328125 C 78.90625 0.578125 71.03125 2.03125 62.40625 2.03125 Z M 62.40625 -20.28125 C 66.976562 -20.28125 71.210938 -21.132812 75.109375 -22.84375 C 79.015625 -24.5625 82.367188 -26.976562 85.171875 -30.09375 C 87.984375 -33.21875 90.164062 -36.882812 91.71875 -41.09375 C 93.28125 -45.3125 94.0625 -49.863281 94.0625 -54.75 C 94.0625 -59.644531 93.28125 -64.171875 91.71875 -68.328125 C 90.164062 -72.484375 87.984375 -76.117188 85.171875 -79.234375 C 82.367188 -82.359375 79.015625 -84.78125 75.109375 -86.5 C 71.210938 -88.21875 66.976562 -89.078125 62.40625 -89.078125 C 57.71875 -89.078125 53.453125 -88.21875 49.609375 -86.5 C 45.765625 -84.78125 42.410156 -82.359375 39.546875 -79.234375 C 36.679688 -76.117188 34.492188 -72.457031 32.984375 -68.25 C 31.484375 -64.039062 30.734375 -59.539062 30.734375 -54.75 C 30.734375 -49.863281 31.484375 -45.3125 32.984375 -41.09375 C 34.492188 -36.882812 36.679688 -33.21875 39.546875 -30.09375 C 42.410156 -26.976562 45.765625 -24.5625 49.609375 -22.84375 C 53.453125 -21.132812 57.71875 -20.28125 62.40625 -20.28125 Z M 62.40625 -20.28125 "/></g></g></g><g transform="matrix(1, 0, 0, 1, 997, 554)"><g clip-path="url(#56af22fbba)"><g fill="#169d53" fill-opacity="1"><g transform="translate(1.636784, 25.105662)"><g><path d="M 11.328125 0 L 2.03125 0 L 2.03125 -16.140625 L 11.328125 -16.140625 L 11.328125 -13.34375 L 5.453125 -13.34375 L 5.453125 -9.796875 L 10.921875 -9.796875 L 10.921875 -6.984375 L 5.453125 -6.984375 L 5.453125 -2.828125 L 11.328125 -2.828125 Z M 11.328125 0 "/></g></g></g><g fill="#169d53" fill-opacity="1"><g transform="translate(13.192875, 25.105662)"><g><path d="M 11.5625 -4.484375 C 11.5625 -3.523438 11.328125 -2.691406 10.859375 -1.984375 C 10.398438 -1.273438 9.722656 -0.726562 8.828125 -0.34375 C 7.941406 0.03125 6.867188 0.21875 5.609375 0.21875 C 5.046875 0.21875 4.5 0.179688 3.96875 0.109375 C 3.4375 0.0351562 2.925781 -0.0703125 2.4375 -0.21875 C 1.945312 -0.363281 1.476562 -0.539062 1.03125 -0.75 L 1.03125 -3.9375 C 1.800781 -3.59375 2.597656 -3.285156 3.421875 -3.015625 C 4.242188 -2.742188 5.0625 -2.609375 5.875 -2.609375 C 6.4375 -2.609375 6.882812 -2.679688 7.21875 -2.828125 C 7.5625 -2.972656 7.8125 -3.171875 7.96875 -3.421875 C 8.125 -3.679688 8.203125 -3.976562 8.203125 -4.3125 C 8.203125 -4.71875 8.066406 -5.0625 7.796875 -5.34375 C 7.523438 -5.632812 7.148438 -5.90625 6.671875 -6.15625 C 6.203125 -6.40625 5.664062 -6.675781 5.0625 -6.96875 C 4.6875 -7.144531 4.273438 -7.359375 3.828125 -7.609375 C 3.390625 -7.867188 2.972656 -8.179688 2.578125 -8.546875 C 2.179688 -8.910156 1.851562 -9.351562 1.59375 -9.875 C 1.34375 -10.40625 1.21875 -11.039062 1.21875 -11.78125 C 1.21875 -12.738281 1.4375 -13.5625 1.875 -14.25 C 2.320312 -14.9375 2.957031 -15.460938 3.78125 -15.828125 C 4.601562 -16.191406 5.570312 -16.375 6.6875 -16.375 C 7.53125 -16.375 8.332031 -16.273438 9.09375 -16.078125 C 9.851562 -15.878906 10.648438 -15.597656 11.484375 -15.234375 L 10.375 -12.578125 C 9.632812 -12.878906 8.96875 -13.113281 8.375 -13.28125 C 7.789062 -13.445312 7.191406 -13.53125 6.578125 -13.53125 C 6.148438 -13.53125 5.785156 -13.457031 5.484375 -13.3125 C 5.179688 -13.175781 4.953125 -12.984375 4.796875 -12.734375 C 4.648438 -12.492188 4.578125 -12.210938 4.578125 -11.890625 C 4.578125 -11.503906 4.6875 -11.179688 4.90625 -10.921875 C 5.132812 -10.660156 5.472656 -10.40625 5.921875 -10.15625 C 6.378906 -9.914062 6.945312 -9.632812 7.625 -9.3125 C 8.445312 -8.925781 9.148438 -8.519531 9.734375 -8.09375 C 10.316406 -7.675781 10.765625 -7.179688 11.078125 -6.609375 C 11.398438 -6.035156 11.5625 -5.328125 11.5625 -4.484375 Z M 11.5625 -4.484375 "/></g></g></g><g fill="#169d53" fill-opacity="1"><g transform="translate(24.539186, 25.105662)"><g><path d="M 8.25 0 L 4.828125 0 L 4.828125 -13.296875 L 0.453125 -13.296875 L 0.453125 -16.140625 L 12.640625 -16.140625 L 12.640625 -13.296875 L 8.25 -13.296875 Z M 8.25 0 "/></g></g></g><g fill="#169d53" fill-opacity="1"><g transform="translate(36.525877, 25.105662)"><g/></g></g><g fill="#169d53" fill-opacity="1"><g transform="translate(41.291727, 25.105662)"><g><path d="M 12.1875 0 L 0.90625 0 L 0.90625 -2.375 L 4.953125 -6.46875 C 5.773438 -7.3125 6.429688 -8.015625 6.921875 -8.578125 C 7.421875 -9.140625 7.78125 -9.648438 8 -10.109375 C 8.226562 -10.578125 8.34375 -11.078125 8.34375 -11.609375 C 8.34375 -12.242188 8.164062 -12.722656 7.8125 -13.046875 C 7.457031 -13.367188 6.976562 -13.53125 6.375 -13.53125 C 5.75 -13.53125 5.140625 -13.382812 4.546875 -13.09375 C 3.960938 -12.800781 3.351562 -12.394531 2.71875 -11.875 L 0.859375 -14.0625 C 1.328125 -14.457031 1.816406 -14.832031 2.328125 -15.1875 C 2.847656 -15.539062 3.453125 -15.828125 4.140625 -16.046875 C 4.828125 -16.265625 5.65625 -16.375 6.625 -16.375 C 7.6875 -16.375 8.597656 -16.179688 9.359375 -15.796875 C 10.117188 -15.410156 10.703125 -14.890625 11.109375 -14.234375 C 11.523438 -13.578125 11.734375 -12.832031 11.734375 -12 C 11.734375 -11.113281 11.554688 -10.300781 11.203125 -9.5625 C 10.847656 -8.820312 10.332031 -8.09375 9.65625 -7.375 C 8.988281 -6.65625 8.179688 -5.859375 7.234375 -4.984375 L 5.15625 -3.03125 L 5.15625 -2.875 L 12.1875 -2.875 Z M 12.1875 0 "/></g></g></g><g fill="#169d53" fill-opacity="1"><g transform="translate(53.112802, 25.105662)"><g><path d="M 12.09375 -8.0625 C 12.09375 -6.757812 11.992188 -5.597656 11.796875 -4.578125 C 11.597656 -3.554688 11.273438 -2.6875 10.828125 -1.96875 C 10.378906 -1.257812 9.796875 -0.71875 9.078125 -0.34375 C 8.359375 0.03125 7.484375 0.21875 6.453125 0.21875 C 5.148438 0.21875 4.082031 -0.109375 3.25 -0.765625 C 2.425781 -1.421875 1.8125 -2.367188 1.40625 -3.609375 C 1.007812 -4.847656 0.8125 -6.332031 0.8125 -8.0625 C 0.8125 -9.8125 0.992188 -11.304688 1.359375 -12.546875 C 1.722656 -13.785156 2.316406 -14.734375 3.140625 -15.390625 C 3.960938 -16.054688 5.066406 -16.390625 6.453125 -16.390625 C 7.734375 -16.390625 8.789062 -16.0625 9.625 -15.40625 C 10.46875 -14.75 11.085938 -13.800781 11.484375 -12.5625 C 11.890625 -11.320312 12.09375 -9.820312 12.09375 -8.0625 Z M 4.203125 -8.0625 C 4.203125 -6.832031 4.269531 -5.804688 4.40625 -4.984375 C 4.539062 -4.171875 4.769531 -3.554688 5.09375 -3.140625 C 5.425781 -2.734375 5.878906 -2.53125 6.453125 -2.53125 C 7.015625 -2.53125 7.457031 -2.734375 7.78125 -3.140625 C 8.113281 -3.546875 8.347656 -4.160156 8.484375 -4.984375 C 8.628906 -5.804688 8.703125 -6.832031 8.703125 -8.0625 C 8.703125 -9.289062 8.628906 -10.316406 8.484375 -11.140625 C 8.347656 -11.972656 8.113281 -12.597656 7.78125 -13.015625 C 7.457031 -13.429688 7.015625 -13.640625 6.453125 -13.640625 C 5.878906 -13.640625 5.425781 -13.429688 5.09375 -13.015625 C 4.769531 -12.597656 4.539062 -11.972656 4.40625 -11.140625 C 4.269531 -10.316406 4.203125 -9.289062 4.203125 -8.0625 Z M 4.203125 -8.0625 "/></g></g></g><g fill="#169d53" fill-opacity="1"><g transform="translate(64.933878, 25.105662)"><g><path d="M 12.1875 0 L 0.90625 0 L 0.90625 -2.375 L 4.953125 -6.46875 C 5.773438 -7.3125 6.429688 -8.015625 6.921875 -8.578125 C 7.421875 -9.140625 7.78125 -9.648438 8 -10.109375 C 8.226562 -10.578125 8.34375 -11.078125 8.34375 -11.609375 C 8.34375 -12.242188 8.164062 -12.722656 7.8125 -13.046875 C 7.457031 -13.367188 6.976562 -13.53125 6.375 -13.53125 C 5.75 -13.53125 5.140625 -13.382812 4.546875 -13.09375 C 3.960938 -12.800781 3.351562 -12.394531 2.71875 -11.875 L 0.859375 -14.0625 C 1.328125 -14.457031 1.816406 -14.832031 2.328125 -15.1875 C 2.847656 -15.539062 3.453125 -15.828125 4.140625 -16.046875 C 4.828125 -16.265625 5.65625 -16.375 6.625 -16.375 C 7.6875 -16.375 8.597656 -16.179688 9.359375 -15.796875 C 10.117188 -15.410156 10.703125 -14.890625 11.109375 -14.234375 C 11.523438 -13.578125 11.734375 -12.832031 11.734375 -12 C 11.734375 -11.113281 11.554688 -10.300781 11.203125 -9.5625 C 10.847656 -8.820312 10.332031 -8.09375 9.65625 -7.375 C 8.988281 -6.65625 8.179688 -5.859375 7.234375 -4.984375 L 5.15625 -3.03125 L 5.15625 -2.875 L 12.1875 -2.875 Z M 12.1875 0 "/></g></g></g><g fill="#169d53" fill-opacity="1"><g transform="translate(76.754954, 25.105662)"><g><path d="M 6.78125 -10.3125 C 7.757812 -10.3125 8.632812 -10.125 9.40625 -9.75 C 10.175781 -9.375 10.78125 -8.820312 11.21875 -8.09375 C 11.664062 -7.363281 11.890625 -6.460938 11.890625 -5.390625 C 11.890625 -4.234375 11.644531 -3.234375 11.15625 -2.390625 C 10.675781 -1.546875 9.957031 -0.898438 9 -0.453125 C 8.050781 -0.00390625 6.867188 0.21875 5.453125 0.21875 C 4.609375 0.21875 3.8125 0.144531 3.0625 0 C 2.3125 -0.132812 1.660156 -0.351562 1.109375 -0.65625 L 1.109375 -3.59375 C 1.660156 -3.300781 2.328125 -3.050781 3.109375 -2.84375 C 3.898438 -2.644531 4.640625 -2.546875 5.328125 -2.546875 C 6.003906 -2.546875 6.570312 -2.632812 7.03125 -2.8125 C 7.5 -3 7.851562 -3.28125 8.09375 -3.65625 C 8.332031 -4.039062 8.453125 -4.523438 8.453125 -5.109375 C 8.453125 -5.898438 8.1875 -6.503906 7.65625 -6.921875 C 7.125 -7.335938 6.3125 -7.546875 5.21875 -7.546875 C 4.800781 -7.546875 4.363281 -7.503906 3.90625 -7.421875 C 3.457031 -7.347656 3.082031 -7.269531 2.78125 -7.1875 L 1.421875 -7.921875 L 2.03125 -16.140625 L 10.78125 -16.140625 L 10.78125 -13.25 L 5.015625 -13.25 L 4.71875 -10.078125 C 4.96875 -10.128906 5.238281 -10.179688 5.53125 -10.234375 C 5.832031 -10.285156 6.25 -10.3125 6.78125 -10.3125 Z M 6.78125 -10.3125 "/></g></g></g></g></g></svg>